<svg width="55" height="55" viewBox="0 0 55 55" fill="none" xmlns="http://www.w3.org/2000/svg">
<path d="M21.8366 30.5434C21.7704 30.4198 21.6611 30.3021 21.6409 30.1699C21.4568 28.9806 20.6599 28.8915 19.6615 28.9518C18.4446 29.0265 17.2218 28.9777 16.002 28.9633C15.6395 28.9605 15.4151 29.0294 15.2309 29.4057C14.1118 31.6753 11.6922 32.8387 9.33305 32.29C6.87319 31.7184 5.2074 29.6844 5.17575 27.2109C5.14123 24.7259 6.74661 22.6 9.13741 21.9652C11.5512 21.3245 14.0255 22.4363 15.2741 24.6857C15.3892 24.8926 15.7287 25.0822 15.9703 25.0879C17.429 25.1252 18.8876 25.0879 20.3463 25.1166C20.8066 25.1252 21.0022 24.9701 21.1662 24.5421C21.6122 23.37 21.6381 23.3786 20.7865 22.5311C17.7541 19.5118 14.7188 16.4982 11.698 13.4702C11.3959 13.1686 11.1715 13.0451 10.7226 13.2519C7.96359 14.5073 4.93121 13.9213 2.88277 11.7868C0.81419 9.63217 0.316465 6.47495 1.63414 3.89516C3.01799 1.17748 5.80582 -0.313508 8.80367 0.0542124C12.797 0.545463 15.7546 4.38067 14.9547 8.08372C14.8023 8.79618 14.4311 9.46267 14.2154 10.1665C14.1463 10.3877 14.1492 10.7612 14.2873 10.8962C17.7196 14.289 21.172 17.6617 24.6359 21.0487C26.0658 20.3966 27.5187 19.9197 29.0867 20.2271C29.7858 20.365 30.4763 20.5805 31.138 20.839C31.4976 20.9798 31.7105 21.0028 32.0068 20.7069C34.7573 17.9461 37.5278 15.2083 40.2725 12.4418C40.4365 12.2752 40.5372 11.8615 40.448 11.6575C39.5561 9.63504 40.4193 7.16442 41.9441 5.86879C43.6645 4.4094 46.0266 4.16808 48.0434 5.254C49.9048 6.25662 50.9693 8.36526 50.719 10.5572C50.3392 13.8839 46.8782 16.0069 43.6962 14.8492C43.3711 14.7314 43.1611 14.6998 42.8877 14.9727C40.0193 17.8513 37.1366 20.7155 34.2595 23.5854C34.1934 23.6515 34.1473 23.7319 34.202 23.6572C34.4667 24.6512 34.6767 25.5217 34.9356 26.3778C34.9874 26.553 35.1917 26.7742 35.3586 26.8058C37.3754 27.2023 39.3979 27.5585 41.4176 27.9492C41.8204 28.0268 42.0102 27.886 42.2174 27.5556C43.958 24.746 47.2205 23.5337 50.2961 24.5277C53.2335 25.4786 55.2359 28.6243 54.9827 31.8907C54.7411 35.002 52.3042 37.6622 49.2201 38.1822C46.0381 38.7165 42.8676 37.0244 41.6161 34.0798C41.3572 33.4736 41.2047 32.81 41.0896 32.1579C41.0234 31.7758 40.8709 31.6379 40.5199 31.5661C38.601 31.1696 36.6849 30.7617 34.7717 30.3365C34.389 30.2503 34.1991 30.3423 33.9546 30.6669C33.4137 31.3851 32.7635 32.02 32.1938 32.721C32.0442 32.9048 31.9177 33.2323 31.9781 33.4334C32.8498 36.3867 33.7446 39.3313 34.6681 42.2673C34.7285 42.4627 35.0421 42.6839 35.2607 42.7097C38.5032 43.1004 40.6063 45.9244 39.9819 49.0874C39.3864 52.1038 36.2878 53.9367 33.2296 53.0835C29.5729 52.0607 28.2034 47.3953 30.7467 44.5167C31.1552 44.0542 31.207 43.698 31.0171 43.132C30.1224 40.4632 29.265 37.78 28.4307 35.091C28.2552 34.5222 28.0394 34.2838 27.3806 34.2206C26.4686 34.1344 25.5882 33.7638 24.6848 33.5598C24.4604 33.5081 24.1094 33.5455 23.9656 33.6891C20.4268 37.1824 16.9169 40.6988 13.381 44.195C13.0502 44.5225 13.194 44.7552 13.3235 45.0654C14.9547 48.9121 13.3407 52.9915 9.52581 54.4739C7.06883 55.4277 4.69529 55.0858 2.6152 53.4684C0.486209 51.8137 -0.281955 49.5298 0.100688 46.9069C0.785419 42.2156 5.68498 39.5554 10.0264 41.4974C10.527 41.7215 10.8061 41.6669 11.1887 41.2791C14.7102 37.7053 18.2547 34.1545 21.8423 30.5491L21.8366 30.5434ZM11.2089 6.96333C11.2089 5.1276 9.70706 3.63086 7.88015 3.65097C6.06763 3.67108 4.62624 5.1276 4.61761 6.95184C4.60898 8.93982 6.03598 10.4452 7.92043 10.4337C9.70994 10.4222 11.2089 8.84215 11.2089 6.9662V6.96333ZM7.03143 51.3109C8.91588 51.2937 10.3371 49.8401 10.2968 47.9699C10.2594 46.1456 8.80655 44.7121 6.99403 44.7092C5.15274 44.7092 3.66244 46.1945 3.67682 48.0216C3.68833 49.8401 5.2074 51.3282 7.03431 51.3109H7.03143ZM27.9733 30.4026C29.7858 30.394 31.2617 28.9317 31.2732 27.1333C31.2876 25.312 29.7829 23.821 27.9387 23.8267C26.1176 23.8325 24.6589 25.2804 24.6474 27.096C24.6359 28.9317 26.1262 30.4141 27.9733 30.4026ZM48.2016 34.4274C50.0256 34.4217 51.4843 32.9766 51.5015 31.1668C51.5188 29.3397 50.0227 27.8487 48.1786 27.8544C46.3603 27.8602 44.8988 29.3052 44.8786 31.1208C44.8585 32.9565 46.3459 34.436 48.2016 34.4303V34.4274ZM34.9385 49.639C35.8419 49.6447 36.5813 48.9236 36.5899 48.0244C36.5986 47.0994 35.8362 46.3352 34.9184 46.3496C34.0294 46.3639 33.3015 47.1109 33.3073 48.0101C33.313 48.915 34.0323 49.6332 34.9385 49.639ZM43.8026 9.74134C43.8199 10.6606 44.5535 11.3731 45.4655 11.3559C46.3574 11.3357 47.0968 10.5601 47.0738 9.67526C47.0479 8.75596 46.3143 8.055 45.3965 8.07223C44.4701 8.08947 43.7854 8.81055 43.8026 9.74421V9.74134ZM12.1266 27.1017C12.118 26.1997 11.3729 25.4671 10.4695 25.4757C9.55746 25.4844 8.82669 26.2169 8.83245 27.1219C8.8382 28.0354 9.55458 28.7306 10.4896 28.7306C11.4246 28.7306 12.1324 28.0239 12.1238 27.1017H12.1266Z" fill="white"/>
</svg>
