<svg width="27" height="20" viewBox="0 0 27 20" fill="none" xmlns="http://www.w3.org/2000/svg">
<path d="M2.4834 19.0422C1.11377 19.0422 0.000488281 17.9288 0.000488281 16.5591V2.67834C0.000488281 1.30945 1.11377 0.195312 2.4834 0.195312H24.2969C25.6658 0.195312 26.7798 1.30945 26.7798 2.67834V16.5591C26.7798 17.9288 25.6658 19.0422 24.2969 19.0422H2.4834ZM1.57886 3.00232V16.2351C1.57886 17.0154 2.21265 17.6489 2.99292 17.6489H23.7874C24.5667 17.6489 25.2012 17.0154 25.2012 16.2351V3.00232C25.2012 2.22302 24.5667 1.5885 23.7874 1.5885H2.99292C2.21265 1.5885 1.57886 2.22302 1.57886 3.00232ZM22.9314 12.3453L21.5688 10.5723L20.2053 12.3453H15.8423V6.89221H20.3423L21.4329 8.52832L22.7964 6.89221H24.2959L22.252 9.61829L24.2959 12.3453H22.9314ZM16.9358 11.2545H19.5249L20.7527 9.62012L19.6619 8.11975H16.9358V9.07288H19.3892V10.1637H16.9358V11.2545ZM13.2537 12.3453V8.39246L11.7534 12.3453H10.6626L9.16235 8.25574V12.3453H6.8457L6.43799 11.1185H4.11963L3.71021 12.3453H2.48267L4.52734 6.89221H6.02759L7.93652 12.0726V6.89221H9.84448L11.208 10.5723L12.5715 6.89221H14.3445V12.3453H13.2537ZM4.52734 9.89099H5.89185L5.20947 7.98303L4.52734 9.89099Z" fill="black"/>
</svg>
