<svg width="186" height="33" viewBox="0 0 186 33" fill="none" xmlns="http://www.w3.org/2000/svg">
<path d="M183.577 0.00426713C182.388 0.10568 181.481 1.10873 181.499 2.3011V30.6978C181.481 31.8905 182.388 32.894 183.577 32.9954C184.187 33.0331 184.785 32.8171 185.231 32.3985C185.676 31.98 185.929 31.396 185.929 30.7848L185.929 2.21487C185.929 1.6036 185.676 1.01951 185.231 0.600891C184.785 0.182278 184.187 -0.0336387 183.577 0.00426713Z" fill="black"/>
<path d="M63.0035 0.236962C61.8973 -0.316846 60.5516 0.131088 59.998 1.23739L47.622 25.9678C47.62 25.9719 47.6158 25.9745 47.6112 25.9745C47.6066 25.9745 47.6024 25.9719 47.6003 25.9678L35.2243 1.23739C34.6544 0.162482 33.3306 -0.260862 32.2427 0.283896C31.1548 0.828654 30.7008 2.14225 31.2201 3.24251L45.4912 31.762C45.8709 32.5213 46.6471 33.0006 47.496 32.9999C47.534 32.9999 47.5727 32.9953 47.611 32.9935C47.6493 32.9917 47.688 32.9999 47.7263 32.9999C48.5751 33.0005 49.3514 32.5212 49.7311 31.762L64.004 3.24251C64.5576 2.13628 64.1097 0.790726 63.0035 0.236962Z" fill="black"/>
<path d="M134.285 0.225789C133.094 0.328238 132.185 1.33337 132.203 2.52831V24.2031C132.203 24.2084 132.2 24.2132 132.195 24.2149C132.19 24.2167 132.184 24.2149 132.181 24.2106L114.283 0.868492C113.581 -0.0450997 112.298 -0.271222 111.326 0.347517C110.676 0.775183 110.289 1.50588 110.302 2.28414V30.693C110.284 31.8877 111.193 32.8928 112.384 32.9951C112.995 33.033 113.595 32.8166 114.041 32.397C114.488 31.9775 114.741 31.3921 114.741 30.7795V8.79634C114.741 8.79133 114.744 8.78693 114.749 8.78527C114.754 8.78362 114.759 8.78506 114.762 8.78889L132.661 32.1302C133.375 33.0599 134.687 33.276 135.661 32.6239C136.286 32.1918 136.655 31.4759 136.643 30.7157V2.44136C136.643 1.8291 136.389 1.24371 135.943 0.824106C135.496 0.404323 134.896 0.187891 134.285 0.225789Z" fill="black"/>
<path d="M172.64 -0.000221952H145.817C144.624 -0.0183313 143.621 0.889188 143.519 2.07765C143.482 2.68759 143.698 3.28597 144.116 3.73122C144.535 4.17647 145.119 4.42902 145.73 4.42914L156.959 4.42914C156.965 4.42932 156.971 4.43462 156.971 4.44121L156.971 30.6976C156.953 31.89 157.86 32.8934 159.048 32.9952C159.658 33.0328 160.256 32.8167 160.701 32.3981C161.147 31.9796 161.399 31.3957 161.399 30.7846V4.44121C161.399 4.43481 161.404 4.42951 161.411 4.42914L172.554 4.42914C173.747 4.44687 174.75 3.53945 174.851 2.35127C174.889 1.74126 174.673 1.14282 174.254 0.697566C173.835 0.252308 173.251 -0.000205537 172.64 -0.000221952Z" fill="black"/>
<path d="M18.7505 1.2368C18.3516 0.440093 17.5183 -0.0443372 16.6286 0.00320673C15.7405 -0.0423245 14.9095 0.44176 14.511 1.2368L0.237387 29.7574C-0.316311 30.8636 0.131596 32.2092 1.23782 32.7629C2.34404 33.3166 3.68967 32.8687 4.24337 31.7625L7.74966 24.7567C7.7516 24.7525 7.75575 24.7499 7.76031 24.7499H25.5012C25.5057 24.7499 25.5099 24.7525 25.5118 24.7567L29.0181 31.7625C29.5718 32.8686 30.9174 33.3165 32.0235 32.7628C33.1296 32.2091 33.5774 30.8635 33.0237 29.7574L18.7505 1.2368ZM9.44283 21.3728L16.6201 7.03177C16.622 7.02761 16.6262 7.02494 16.6307 7.02494C16.6353 7.02494 16.6395 7.02761 16.6414 7.03177L23.819 21.3728C23.8209 21.3765 23.8207 21.3808 23.8185 21.3843C23.8163 21.3878 23.8125 21.3899 23.8084 21.3898H9.45348C9.44937 21.3899 9.44551 21.3878 9.44333 21.3843C9.44115 21.3808 9.44096 21.3765 9.44283 21.3728Z" fill="black"/>
<path d="M103.568 29.9657C103.542 29.8905 103.511 29.8169 103.476 29.7453L90.3321 3.18762C89.6569 1.62689 88.2507 0.503299 86.5795 0.189038C84.9082 -0.125223 83.19 0.410867 81.994 1.61973L78.7645 7.76852L71.0141 24.0934C69.7344 26.5599 67.7165 28.1931 65.3125 28.7648L77.1799 4.86944C77.2037 4.82082 77.2257 4.77149 77.2459 4.72145C77.4399 4.28539 77.8727 4.00465 78.35 4.00529C78.3949 4.00605 78.4396 4.00937 78.4841 4.01522L80.436 0.543352C79.1855 -0.0142421 77.7638 -0.0476638 76.4884 0.450556C75.2131 0.948775 74.1905 1.93711 73.6491 3.19472L60.4917 29.6914C60.4714 29.7294 60.4526 29.768 60.4349 29.8082C60.1425 30.4554 60.1866 31.205 60.553 31.8134C60.9193 32.4218 61.5612 32.8115 62.27 32.8559C62.6281 32.8857 62.9904 32.9006 63.3485 32.9006C68.0589 32.9006 72.2282 30.2684 74.4998 25.8582C74.5094 25.8394 74.519 25.8206 74.5278 25.8011L81.923 10.2226L81.9251 10.2176L81.9908 10.0799L84.1556 5.53201L84.1524 5.52527L84.4782 4.83892C84.4919 4.81005 84.5048 4.78107 84.5169 4.75197C84.7043 4.29995 85.1455 4.00527 85.6348 4.00527C86.1241 4.00527 86.5653 4.29995 86.7527 4.75197C86.7687 4.79136 86.7882 4.8304 86.8055 4.86873L98.6311 28.7637C96.2442 28.1902 94.2362 26.5581 92.9582 24.0941L85.1755 7.68051L83.0267 12.2642L89.4438 25.7983C89.453 25.8174 89.4626 25.8369 89.4722 25.8561C91.779 30.332 95.8304 32.8985 100.591 32.8985C100.967 32.8985 101.347 32.8818 101.722 32.8492C101.959 32.8288 102.19 32.7651 102.404 32.6611C103.445 32.2123 103.956 31.0293 103.568 29.9639" fill="black"/>
</svg>
