<svg width="37" height="25" viewBox="0 0 37 25" fill="none" xmlns="http://www.w3.org/2000/svg">
<path d="M34.3329 24.8689H3.06654C1.67995 24.867 0.55661 23.7429 0.555664 22.3563L0.555679 2.70621C0.557571 1.32025 1.68062 0.197205 3.06654 0.195312L34.3329 0.195343C35.7188 0.197205 36.8418 1.32028 36.8438 2.70621L36.8438 22.3563C36.8428 23.7429 35.7195 24.867 34.3329 24.8689ZM3.06656 1.63287C2.47473 1.63287 1.99495 2.11264 1.99495 2.70447L1.99493 22.3563C1.99495 22.9481 2.47472 23.4279 3.06656 23.4279H34.3329C34.9248 23.4279 35.4045 22.9481 35.4045 22.3563V2.70621C35.4045 2.11438 34.9248 1.63458 34.3329 1.63458L3.06656 1.63287Z" fill="black"/>
<rect x="30.8057" y="3.92529" width="2.308" height="17.3039" fill="black"/>
<rect x="27.353" y="3.92529" width="2.308" height="14.9959" fill="black"/>
<rect x="10.0493" y="3.92529" width="2.308" height="14.9959" fill="black"/>
<rect x="21.5718" y="3.92529" width="2.308" height="14.9959" fill="black"/>
<rect x="15.8096" y="3.92529" width="3.37963" height="14.9959" fill="black"/>
<rect x="7.77783" y="3.92529" width="1.10805" height="14.9959" fill="black"/>
<rect x="13.5381" y="3.92529" width="1.10805" height="14.9959" fill="black"/>
<rect x="25.0454" y="3.92529" width="1.10805" height="14.9959" fill="black"/>
<rect x="4.26807" y="3.92529" width="2.308" height="17.3039" fill="black"/>
</svg>
