<svg width="26" height="25" viewBox="0 0 26 25" fill="none" xmlns="http://www.w3.org/2000/svg">
<path d="M8.75691 24.7675C8.36153 24.6283 7.92967 24.55 7.57688 24.3395C5.88861 23.3319 5.85624 20.9008 7.50304 19.8221C7.67071 19.7123 7.70166 19.6238 7.64968 19.4348C6.4941 15.2308 5.3415 11.0259 4.19862 6.81838C3.76598 5.22546 3.35906 3.62554 2.93996 2.02895C2.91972 1.95179 2.89507 1.87581 2.86852 1.78584H0.0532227V0.612305H3.42712C3.72266 0.716602 3.86622 0.930918 3.94235 1.23276C4.14899 2.05237 4.37954 2.86597 4.6008 3.68187C4.80025 4.41748 4.9999 5.15304 5.20317 5.90219H5.53327C11.7872 5.90219 18.0412 5.9038 24.295 5.89808C24.655 5.89779 24.9301 5.99441 25.0886 6.33327V6.67555C25.0587 6.74855 25.0204 6.81926 25.0001 6.89485C24.1793 9.95107 23.3597 13.0076 22.5407 16.0644C22.2184 17.2672 21.3664 17.9232 20.1197 17.9234C16.4607 17.9238 12.8017 17.9241 9.14266 17.922C8.92629 17.9218 8.70992 17.8995 8.47746 17.8866C8.58689 18.2858 8.71036 18.6662 8.79085 19.0556C8.84009 19.2939 8.94228 19.355 9.17884 19.3545C12.8542 19.3466 16.5295 19.3467 20.2049 19.3501C21.6306 19.3514 22.7597 20.3824 22.9229 21.8171C23.0726 23.1333 22.1463 24.3881 20.7992 24.693C20.681 24.7197 20.562 24.7427 20.4433 24.7675H20.0521C19.9973 24.7532 19.9433 24.7334 19.8876 24.7255C17.977 24.4529 16.9656 22.4088 17.907 20.7217C17.9405 20.6618 17.9701 20.5997 18.0057 20.5305H11.2099C11.2676 20.6365 11.3148 20.7204 11.3595 20.8055C12.1221 22.2596 11.4264 24.0484 9.87954 24.5949C9.65921 24.6727 9.42485 24.7109 9.19698 24.7675H8.75691ZM23.7303 7.08633H5.49537C5.51591 7.17806 5.53009 7.25669 5.55122 7.33341C6.32765 10.1565 7.10526 12.9793 7.88131 15.8025C8.07709 16.5148 8.46025 16.8094 9.20496 16.8095C12.8225 16.8097 16.4399 16.8097 20.0574 16.8095C20.8543 16.8095 21.2183 16.5275 21.4216 15.7629C21.9838 13.6485 22.548 11.5346 23.111 9.42029C23.3156 8.65158 23.5191 7.88257 23.7303 7.08633ZM20.255 23.603C21.1075 23.5993 21.7916 22.9152 21.7944 22.0636C21.7971 21.2095 21.093 20.5095 20.2357 20.514C19.3907 20.5184 18.6972 21.2135 18.6951 22.0582C18.693 22.9156 19.3909 23.6067 20.255 23.603ZM8.96658 23.6032C9.8215 23.6065 10.511 22.9315 10.5192 22.0833C10.5275 21.2188 9.84292 20.5172 8.98785 20.514C8.13812 20.5107 7.44265 21.1938 7.43537 22.0389C7.42789 22.9087 8.10438 23.5999 8.96658 23.6032Z" fill="black"/>
</svg>
