<svg width="82" height="12" viewBox="0 0 82 12" fill="none" xmlns="http://www.w3.org/2000/svg">
<path d="M2.75 9H0.0568182V0.272727H2.86932C3.71591 0.272727 4.44034 0.447443 5.04261 0.796875C5.64489 1.14347 6.10653 1.64205 6.42756 2.29261C6.74858 2.94034 6.90909 3.71591 6.90909 4.61932C6.90909 5.52841 6.74716 6.31108 6.4233 6.96733C6.09943 7.62074 5.62784 8.12358 5.00852 8.47585C4.3892 8.82528 3.63636 9 2.75 9ZM1.11364 8.0625H2.68182C3.40341 8.0625 4.00142 7.9233 4.47585 7.64489C4.95028 7.36648 5.30398 6.97017 5.53693 6.45597C5.76989 5.94176 5.88636 5.32955 5.88636 4.61932C5.88636 3.91477 5.77131 3.30824 5.54119 2.79972C5.31108 2.28835 4.96733 1.89631 4.50994 1.62358C4.05256 1.34801 3.48295 1.21023 2.80114 1.21023H1.11364V8.0625ZM8.54545 9V2.45455H9.55114V9H8.54545ZM9.05682 1.36364C8.8608 1.36364 8.69176 1.29688 8.54972 1.16335C8.41051 1.02983 8.34091 0.869318 8.34091 0.681818C8.34091 0.494318 8.41051 0.333807 8.54972 0.200284C8.69176 0.0667613 8.8608 0 9.05682 0C9.25284 0 9.42045 0.0667613 9.55966 0.200284C9.7017 0.333807 9.77273 0.494318 9.77273 0.681818C9.77273 0.869318 9.7017 1.02983 9.55966 1.16335C9.42045 1.29688 9.25284 1.36364 9.05682 1.36364ZM14.0352 11.5909C13.5494 11.5909 13.1317 11.5284 12.7823 11.4034C12.4329 11.2812 12.1417 11.1193 11.9087 10.9176C11.6786 10.7188 11.4954 10.5057 11.359 10.2784L12.1602 9.71591C12.2511 9.83523 12.3661 9.97159 12.5053 10.125C12.6445 10.2812 12.8349 10.4162 13.0763 10.5298C13.3207 10.6463 13.6403 10.7045 14.0352 10.7045C14.5636 10.7045 14.9996 10.5767 15.3434 10.321C15.6871 10.0653 15.859 9.66477 15.859 9.11932V7.78977H15.7738C15.6999 7.90909 15.5948 8.05682 15.4585 8.23295C15.3249 8.40625 15.1317 8.56108 14.8789 8.69744C14.6289 8.83097 14.2908 8.89773 13.8647 8.89773C13.3363 8.89773 12.8619 8.77273 12.4414 8.52273C12.0238 8.27273 11.6928 7.90909 11.4485 7.43182C11.207 6.95455 11.0863 6.375 11.0863 5.69318C11.0863 5.02273 11.2042 4.43892 11.44 3.94176C11.6758 3.44176 12.0039 3.0554 12.4244 2.78267C12.8448 2.5071 13.3306 2.36932 13.8817 2.36932C14.3079 2.36932 14.646 2.44034 14.896 2.58239C15.1488 2.72159 15.342 2.88068 15.4755 3.05966C15.6119 3.2358 15.717 3.38068 15.7908 3.49432H15.8931V2.45455H16.8647V9.1875C16.8647 9.75 16.7369 10.2074 16.4812 10.5597C16.2283 10.9148 15.8874 11.1747 15.4585 11.3395C15.0323 11.5071 14.5579 11.5909 14.0352 11.5909ZM14.0011 7.99432C14.4045 7.99432 14.7454 7.90199 15.0238 7.71733C15.3022 7.53267 15.5138 7.26705 15.6587 6.92045C15.8036 6.57386 15.8761 6.15909 15.8761 5.67614C15.8761 5.20455 15.805 4.78835 15.663 4.42756C15.521 4.06676 15.3107 3.78409 15.0323 3.57955C14.7539 3.375 14.4102 3.27273 14.0011 3.27273C13.5749 3.27273 13.2198 3.38068 12.9357 3.59659C12.6545 3.8125 12.4428 4.10227 12.3008 4.46591C12.1616 4.82955 12.092 5.23295 12.092 5.67614C12.092 6.13068 12.163 6.53267 12.305 6.8821C12.4499 7.22869 12.663 7.50142 12.9442 7.70028C13.2283 7.89631 13.5806 7.99432 14.0011 7.99432ZM18.7056 9V2.45455H19.7113V9H18.7056ZM19.217 1.36364C19.021 1.36364 18.8519 1.29688 18.7099 1.16335C18.5707 1.02983 18.5011 0.869318 18.5011 0.681818C18.5011 0.494318 18.5707 0.333807 18.7099 0.200284C18.8519 0.0667613 19.021 0 19.217 0C19.413 0 19.5806 0.0667613 19.7198 0.200284C19.8619 0.333807 19.9329 0.494318 19.9329 0.681818C19.9329 0.869318 19.8619 1.02983 19.7198 1.16335C19.5806 1.29688 19.413 1.36364 19.217 1.36364ZM24.3999 2.45455V3.30682H21.0078V2.45455H24.3999ZM21.9964 0.886364H23.0021V7.125C23.0021 7.40909 23.0433 7.62216 23.1257 7.7642C23.2109 7.90341 23.3189 7.99716 23.4496 8.04545C23.5831 8.09091 23.7237 8.11364 23.8714 8.11364C23.9822 8.11364 24.0732 8.10795 24.1442 8.09659C24.2152 8.08239 24.272 8.07102 24.3146 8.0625L24.5192 8.96591C24.451 8.99148 24.3558 9.01705 24.2337 9.04261C24.1115 9.07102 23.9567 9.08523 23.7692 9.08523C23.4851 9.08523 23.2067 9.02415 22.9339 8.90199C22.6641 8.77983 22.4396 8.59375 22.2607 8.34375C22.0845 8.09375 21.9964 7.77841 21.9964 7.39773V0.886364ZM28.5866 9.13636C27.956 9.13636 27.4119 8.99716 26.9545 8.71875C26.5 8.4375 26.1491 8.04545 25.902 7.54261C25.6577 7.03693 25.5355 6.44886 25.5355 5.77841C25.5355 5.10795 25.6577 4.51705 25.902 4.00568C26.1491 3.49148 26.4929 3.09091 26.9332 2.80398C27.3764 2.5142 27.8935 2.36932 28.4844 2.36932C28.8253 2.36932 29.1619 2.42614 29.4943 2.53977C29.8267 2.65341 30.1293 2.83807 30.402 3.09375C30.6747 3.34659 30.892 3.68182 31.054 4.09943C31.2159 4.51705 31.2969 5.03125 31.2969 5.64205V6.06818H26.2514V5.19886H30.2741C30.2741 4.82955 30.2003 4.5 30.0526 4.21023C29.9077 3.92045 29.7003 3.69176 29.4304 3.52415C29.1634 3.35653 28.848 3.27273 28.4844 3.27273C28.0838 3.27273 27.7372 3.37216 27.4446 3.57102C27.1548 3.76705 26.9318 4.02273 26.7756 4.33807C26.6193 4.65341 26.5412 4.99148 26.5412 5.35227V5.93182C26.5412 6.42614 26.6264 6.84517 26.7969 7.18892C26.9702 7.52983 27.2102 7.78977 27.517 7.96875C27.8239 8.14489 28.1804 8.23295 28.5866 8.23295C28.8509 8.23295 29.0895 8.19602 29.3026 8.12216C29.5185 8.04545 29.7045 7.93182 29.8608 7.78125C30.017 7.62784 30.1378 7.4375 30.223 7.21023L31.1946 7.48295C31.0923 7.8125 30.9205 8.10227 30.679 8.35227C30.4375 8.59943 30.1392 8.79261 29.7841 8.93182C29.429 9.06818 29.0298 9.13636 28.5866 9.13636ZM40.8381 3.92045L39.9347 4.17614C39.8778 4.02557 39.794 3.87926 39.6832 3.73722C39.5753 3.59233 39.4276 3.47301 39.2401 3.37926C39.0526 3.28551 38.8125 3.23864 38.5199 3.23864C38.1193 3.23864 37.7855 3.33097 37.5185 3.51562C37.2543 3.69744 37.1222 3.92898 37.1222 4.21023C37.1222 4.46023 37.2131 4.65767 37.3949 4.80256C37.5767 4.94744 37.8608 5.06818 38.2472 5.16477L39.2188 5.40341C39.804 5.54545 40.2401 5.76278 40.527 6.0554C40.8139 6.34517 40.9574 6.71875 40.9574 7.17614C40.9574 7.55114 40.8494 7.88636 40.6335 8.18182C40.4205 8.47727 40.1222 8.71023 39.7386 8.88068C39.3551 9.05114 38.9091 9.13636 38.4006 9.13636C37.733 9.13636 37.1804 8.99148 36.7429 8.7017C36.3054 8.41193 36.0284 7.98864 35.9119 7.43182L36.8665 7.19318C36.9574 7.54545 37.1293 7.80966 37.3821 7.9858C37.6378 8.16193 37.9716 8.25 38.3835 8.25C38.8523 8.25 39.2244 8.15057 39.5 7.9517C39.7784 7.75 39.9176 7.50852 39.9176 7.22727C39.9176 7 39.8381 6.80966 39.679 6.65625C39.5199 6.5 39.2756 6.38352 38.946 6.30682L37.8551 6.05114C37.2557 5.90909 36.8153 5.68892 36.5341 5.39062C36.2557 5.08949 36.1165 4.71307 36.1165 4.26136C36.1165 3.89205 36.2202 3.56534 36.4276 3.28125C36.6378 2.99716 36.9233 2.77415 37.2841 2.61222C37.6477 2.45028 38.0597 2.36932 38.5199 2.36932C39.1676 2.36932 39.6761 2.51136 40.0455 2.79545C40.4176 3.07955 40.6818 3.45455 40.8381 3.92045ZM45.2156 9.13636C44.5849 9.13636 44.0408 8.99716 43.5835 8.71875C43.1289 8.4375 42.7781 8.04545 42.5309 7.54261C42.2866 7.03693 42.1644 6.44886 42.1644 5.77841C42.1644 5.10795 42.2866 4.51705 42.5309 4.00568C42.7781 3.49148 43.1218 3.09091 43.5621 2.80398C44.0053 2.5142 44.5224 2.36932 45.1133 2.36932C45.4542 2.36932 45.7908 2.42614 46.1232 2.53977C46.4556 2.65341 46.7582 2.83807 47.0309 3.09375C47.3036 3.34659 47.521 3.68182 47.6829 4.09943C47.8448 4.51705 47.9258 5.03125 47.9258 5.64205V6.06818H42.8803V5.19886H46.9031C46.9031 4.82955 46.8292 4.5 46.6815 4.21023C46.5366 3.92045 46.3292 3.69176 46.0593 3.52415C45.7923 3.35653 45.4769 3.27273 45.1133 3.27273C44.7127 3.27273 44.3661 3.37216 44.0735 3.57102C43.7837 3.76705 43.5607 4.02273 43.4045 4.33807C43.2482 4.65341 43.1701 4.99148 43.1701 5.35227V5.93182C43.1701 6.42614 43.2553 6.84517 43.4258 7.18892C43.5991 7.52983 43.8391 7.78977 44.146 7.96875C44.4528 8.14489 44.8093 8.23295 45.2156 8.23295C45.4798 8.23295 45.7184 8.19602 45.9315 8.12216C46.1474 8.04545 46.3335 7.93182 46.4897 7.78125C46.646 7.62784 46.7667 7.4375 46.8519 7.21023L47.8235 7.48295C47.7212 7.8125 47.5494 8.10227 47.3079 8.35227C47.0664 8.59943 46.7681 8.79261 46.413 8.93182C46.0579 9.06818 45.6587 9.13636 45.2156 9.13636ZM53.5806 6.32386V2.45455H54.5863V9H53.5806V7.89205H53.5124C53.359 8.22443 53.1204 8.5071 52.7965 8.74006C52.4727 8.97017 52.0636 9.08523 51.5692 9.08523C51.1602 9.08523 50.7965 8.99574 50.4783 8.81676C50.1602 8.63494 49.9102 8.36222 49.7283 7.99858C49.5465 7.6321 49.4556 7.17045 49.4556 6.61364V2.45455H50.4613V6.54545C50.4613 7.02273 50.5948 7.40341 50.8619 7.6875C51.1317 7.97159 51.4755 8.11364 51.8931 8.11364C52.1431 8.11364 52.3974 8.04972 52.6559 7.92188C52.9173 7.79403 53.136 7.59801 53.3121 7.33381C53.4911 7.0696 53.5806 6.73295 53.5806 6.32386ZM66.9624 3H65.9055C65.843 2.69602 65.7337 2.42898 65.5774 2.19886C65.424 1.96875 65.2365 1.77557 65.0149 1.61932C64.7962 1.46023 64.5533 1.34091 64.2862 1.26136C64.0192 1.18182 63.7408 1.14205 63.451 1.14205C62.9226 1.14205 62.4439 1.27557 62.0149 1.54261C61.5888 1.80966 61.2493 2.20312 60.9964 2.72301C60.7464 3.2429 60.6214 3.88068 60.6214 4.63636C60.6214 5.39205 60.7464 6.02983 60.9964 6.54972C61.2493 7.0696 61.5888 7.46307 62.0149 7.73011C62.4439 7.99716 62.9226 8.13068 63.451 8.13068C63.7408 8.13068 64.0192 8.09091 64.2862 8.01136C64.5533 7.93182 64.7962 7.81392 65.0149 7.65767C65.2365 7.49858 65.424 7.30398 65.5774 7.07386C65.7337 6.84091 65.843 6.57386 65.9055 6.27273H66.9624C66.8828 6.71875 66.7379 7.1179 66.5277 7.47017C66.3175 7.82244 66.0561 8.12216 65.7436 8.36932C65.4311 8.61364 65.0803 8.79972 64.6911 8.92756C64.3047 9.0554 63.8913 9.11932 63.451 9.11932C62.7067 9.11932 62.0447 8.9375 61.4652 8.57386C60.8857 8.21023 60.4297 7.69318 60.0973 7.02273C59.7649 6.35227 59.5987 5.55682 59.5987 4.63636C59.5987 3.71591 59.7649 2.92045 60.0973 2.25C60.4297 1.57955 60.8857 1.0625 61.4652 0.698864C62.0447 0.335227 62.7067 0.153409 63.451 0.153409C63.8913 0.153409 64.3047 0.217329 64.6911 0.34517C65.0803 0.473011 65.4311 0.660511 65.7436 0.90767C66.0561 1.15199 66.3175 1.45028 66.5277 1.80256C66.7379 2.15199 66.8828 2.55114 66.9624 3ZM68.6701 9V0.272727H73.9371V1.21023H69.7269V4.15909H73.6644V5.09659H69.7269V8.0625H74.0053V9H68.6701ZM75.842 9V0.272727H78.7908C79.4755 0.272727 80.0352 0.396307 80.4698 0.643466C80.9073 0.887784 81.2312 1.21875 81.4414 1.63636C81.6516 2.05398 81.7567 2.51989 81.7567 3.03409C81.7567 3.5483 81.6516 4.01562 81.4414 4.43608C81.234 4.85653 80.913 5.19176 80.4783 5.44176C80.0437 5.68892 79.4869 5.8125 78.8079 5.8125H76.6942V4.875H78.7738C79.2425 4.875 79.619 4.79403 79.9031 4.6321C80.1871 4.47017 80.3931 4.25142 80.521 3.97585C80.6516 3.69744 80.717 3.38352 80.717 3.03409C80.717 2.68466 80.6516 2.37216 80.521 2.09659C80.3931 1.82102 80.1857 1.60511 79.8988 1.44886C79.6119 1.28977 79.2312 1.21023 78.7567 1.21023H76.8988V9H75.842Z" fill="#707070"/>
</svg>