<svg width="31" height="19" viewBox="0 0 31 19" fill="none" xmlns="http://www.w3.org/2000/svg">
<path d="M9.89648 18.8761C4.74658 18.8761 0.556152 14.6864 0.556152 9.5354C0.556152 4.38538 4.74658 0.194824 9.89648 0.194824H21.1624C26.3125 0.194824 30.5029 4.38538 30.5029 9.5354C30.5029 14.6864 26.3125 18.8761 21.1624 18.8761H9.89648ZM1.09399 9.53796C1.09399 14.3912 5.04272 18.3397 9.89648 18.3397C14.7498 18.3397 18.6982 14.3912 18.6982 9.53796C18.6982 4.68481 14.7498 0.735474 9.89648 0.735474C5.04272 0.735474 1.09399 4.68481 1.09399 9.53796ZM11.9626 4.20251C14.1047 5.03235 15.624 7.10547 15.624 9.53796C15.624 11.9707 14.1028 14.0455 11.9626 14.8735V4.20251ZM4.17114 9.53796V9.5354C4.17114 7.10278 5.69019 5.02795 7.8313 4.19995V14.8735C5.69287 14.0455 4.17114 11.9725 4.17114 9.53796Z" fill="black"/>
</svg>
