<svg width="33" height="13" viewBox="0 0 33 13" fill="none" xmlns="http://www.w3.org/2000/svg">
<path d="M5.05234 2.93798C5.41629 2.81639 5.80539 2.75105 6.21054 2.75105C7.97723 2.75105 9.45224 4.0059 9.7901 5.67384L12.2945 5.16299C11.7199 2.32855 9.21472 0.195312 6.21054 0.195312C5.52216 0.195312 4.86087 0.307503 4.24219 0.514213L5.05234 2.93798Z" fill="black"/>
<path d="M2.09693 11.0542L3.79049 9.13952C3.0345 8.46978 2.55753 7.49232 2.55753 6.40334C2.55753 5.31434 3.03385 4.33818 3.78936 3.66926L2.09547 1.75439C0.811604 2.89171 0.00146484 4.55316 0.00146484 6.40334C0.00146484 8.25351 0.811928 9.91675 2.09693 11.0542Z" fill="black"/>
<path d="M9.78931 7.13623C9.45013 8.80334 7.97656 10.0558 6.21039 10.0558C5.80508 10.0558 5.41483 9.99045 5.05103 9.86819L4.23975 12.2931C4.85858 12.4996 5.52118 12.6115 6.21039 12.6115C9.21164 12.6115 11.7163 10.4818 12.2933 7.64984L9.78931 7.13623Z" fill="black"/>
<path d="M14.4843 9.22051C14.4023 9.08756 14.2909 8.87502 14.2236 8.71857C13.827 7.79786 13.8081 6.84505 14.143 5.93033C14.5112 4.92728 15.2147 4.15929 16.1235 3.76824C17.2662 3.27651 18.53 3.37346 19.6251 4.02326C20.3208 4.42241 20.814 5.03866 21.1885 5.91007C21.2362 6.02161 21.2781 6.14078 21.319 6.24195L14.4843 9.22051ZM16.7665 5.24634C15.9551 5.59507 15.5368 6.35624 15.6227 7.24874L19.0601 5.76935C18.469 5.0748 17.6999 4.84459 16.7665 5.24634ZM19.489 8.46517C19.4882 8.46581 19.4877 8.46647 19.487 8.46711L19.4158 8.41913C19.2108 8.75197 18.8907 9.02158 18.4868 9.19668C17.7185 9.53081 17.0065 9.44489 16.4951 8.99645L16.4481 9.06795C16.4481 9.06795 16.4475 9.06649 16.4467 9.06649L15.5746 10.3711C15.791 10.5216 16.0235 10.649 16.2677 10.7508C17.231 11.1509 18.2166 11.1325 19.1876 10.7101C19.8899 10.4058 20.4409 9.94164 20.8176 9.35344L19.489 8.46517Z" fill="black"/>
<path d="M23.7083 1.84668V9.09983L24.8358 9.55686L24.1951 11.052L22.9503 10.5337C22.6709 10.4127 22.4807 10.2276 22.3368 10.0186C22.1991 9.80556 22.0962 9.51325 22.0962 9.11961V1.84668H23.7083Z" fill="black"/>
<path d="M26.6293 7.25208C26.63 6.63437 26.9026 6.08054 27.3342 5.7041L26.1772 4.41406C25.3926 5.10764 24.8984 6.12106 24.8975 7.25027C24.8961 8.37982 25.3897 9.39438 26.1736 10.0898L27.3292 8.7984C26.8998 8.42035 26.6288 7.86832 26.6293 7.25208Z" fill="black"/>
<path d="M28.6848 9.31064C28.457 9.31 28.2377 9.27237 28.0331 9.20428L27.4805 10.8471C27.8582 10.9739 28.2626 11.043 28.683 11.0436C30.5149 11.0454 32.0446 9.74564 32.3989 8.0177L30.7007 7.6709C30.5076 8.60785 29.6783 9.31146 28.6848 9.31064Z" fill="black"/>
<path d="M28.6897 3.46436C28.2698 3.46387 27.8654 3.53212 27.4883 3.65778L28.036 5.30205C28.2412 5.23427 28.4606 5.19683 28.6881 5.19683C29.6838 5.1978 30.5138 5.90579 30.7023 6.84499L32.4008 6.50048C32.0514 4.77027 30.5231 3.46566 28.6897 3.46436Z" fill="black"/>
</svg>
