<svg xmlns="http://www.w3.org/2000/svg" width="20.998" height="18.251" viewBox="0 0 20.998 18.251">
  <g id="Grupo_18441" data-name="Grupo 18441" transform="translate(-227.001 -295.752)">
    <g id="Subtração_49" data-name="Subtração 49" transform="translate(-6465.998 -12548.25)" fill="#fff">
      <path d="M 6707.99853515625 12849.8525390625 C 6706.8876953125 12849.8525390625 6705.8701171875 12849.19921875 6705.40625 12848.1865234375 L 6705.3662109375 12848.0986328125 L 6705.27001953125 12848.0986328125 L 6693.1494140625 12848.0986328125 L 6693.1494140625 12846.4033203125 L 6705.0927734375 12846.4033203125 L 6705.208984375 12846.4033203125 L 6705.23779296875 12846.2900390625 C 6705.5634765625 12845.03125 6706.69873046875 12844.15234375 6707.99853515625 12844.15234375 C 6709.2978515625 12844.15234375 6710.43310546875 12845.03125 6710.75927734375 12846.291015625 L 6710.7880859375 12846.4033203125 L 6710.904296875 12846.4033203125 L 6713.84716796875 12846.4033203125 L 6713.84716796875 12848.0986328125 L 6710.7265625 12848.0986328125 L 6710.63037109375 12848.0986328125 L 6710.59033203125 12848.1865234375 C 6710.126953125 12849.19921875 6709.109375 12849.8525390625 6707.99853515625 12849.8525390625 Z M 6707.99853515625 12845.3505859375 C 6707.0888671875 12845.3505859375 6706.34912109375 12846.0908203125 6706.34912109375 12847.0009765625 C 6706.34912109375 12847.91015625 6707.0888671875 12848.650390625 6707.99853515625 12848.650390625 C 6708.908203125 12848.650390625 6709.64794921875 12847.91015625 6709.64794921875 12847.0009765625 C 6709.64794921875 12846.0908203125 6708.908203125 12845.3505859375 6707.99853515625 12845.3505859375 Z" stroke="none"/>
      <path d="M 6707.99853515625 12849.703125 C 6709.05078125 12849.703125 6710.0146484375 12849.0830078125 6710.45361328125 12848.1240234375 L 6710.5341796875 12847.94921875 L 6713.697265625 12847.94921875 L 6713.697265625 12846.552734375 L 6710.671875 12846.552734375 L 6710.61376953125 12846.328125 C 6710.3046875 12845.134765625 6709.2294921875 12844.3017578125 6707.99853515625 12844.3017578125 C 6706.76708984375 12844.3017578125 6705.69189453125 12845.134765625 6705.38330078125 12846.328125 L 6705.3251953125 12846.552734375 L 6693.29931640625 12846.552734375 L 6693.29931640625 12847.94921875 L 6705.46240234375 12847.94921875 L 6705.54296875 12848.1240234375 C 6705.982421875 12849.0830078125 6706.9462890625 12849.703125 6707.99853515625 12849.703125 M 6707.99853515625 12845.201171875 C 6708.99072265625 12845.201171875 6709.7978515625 12846.0087890625 6709.7978515625 12847.0009765625 C 6709.7978515625 12847.9931640625 6708.99072265625 12848.7998046875 6707.99853515625 12848.7998046875 C 6707.00634765625 12848.7998046875 6706.19921875 12847.9931640625 6706.19921875 12847.0009765625 C 6706.19921875 12846.0087890625 6707.00634765625 12845.201171875 6707.99853515625 12845.201171875 M 6707.99853515625 12850.0029296875 C 6706.8291015625 12850.0029296875 6705.75830078125 12849.314453125 6705.27001953125 12848.2490234375 L 6692.99951171875 12848.2490234375 L 6692.99951171875 12846.2529296875 L 6705.0927734375 12846.2529296875 C 6705.435546875 12844.927734375 6706.630859375 12844.001953125 6707.99853515625 12844.001953125 C 6709.3662109375 12844.001953125 6710.56103515625 12844.927734375 6710.904296875 12846.2529296875 L 6713.9970703125 12846.2529296875 L 6713.9970703125 12848.2490234375 L 6710.7265625 12848.2490234375 C 6710.23876953125 12849.314453125 6709.16796875 12850.0029296875 6707.99853515625 12850.0029296875 Z M 6707.99853515625 12845.5009765625 C 6707.171875 12845.5009765625 6706.4990234375 12846.173828125 6706.4990234375 12847.0009765625 C 6706.4990234375 12847.8271484375 6707.171875 12848.5 6707.99853515625 12848.5 C 6708.8251953125 12848.5 6709.498046875 12847.8271484375 6709.498046875 12847.0009765625 C 6709.498046875 12846.173828125 6708.8251953125 12845.5009765625 6707.99853515625 12845.5009765625 Z" stroke="none" fill="#005cff"/>
    </g>
    <g id="Subtração_48" data-name="Subtração 48" transform="translate(-6465.998 -12542)" fill="#fff">
      <path d="M 6697.998046875 12849.8525390625 C 6696.7939453125 12849.8525390625 6695.71435546875 12849.087890625 6695.3115234375 12847.9501953125 L 6695.27587890625 12847.849609375 L 6695.169921875 12847.849609375 L 6693.1494140625 12847.849609375 L 6693.1494140625 12846.1484375 L 6695.169921875 12846.1484375 L 6695.27587890625 12846.1484375 L 6695.3115234375 12846.0478515625 C 6695.71337890625 12844.9140625 6696.79296875 12844.15234375 6697.998046875 12844.15234375 C 6699.20361328125 12844.15234375 6700.283203125 12844.9140625 6700.6845703125 12846.0478515625 L 6700.72021484375 12846.1484375 L 6700.826171875 12846.1484375 L 6713.84716796875 12846.1484375 L 6713.84716796875 12847.849609375 L 6700.826171875 12847.849609375 L 6700.72021484375 12847.849609375 L 6700.6845703125 12847.9501953125 C 6700.28173828125 12849.087890625 6699.2021484375 12849.8525390625 6697.998046875 12849.8525390625 Z M 6697.998046875 12845.3505859375 C 6697.08837890625 12845.3505859375 6696.3486328125 12846.0908203125 6696.3486328125 12847.0009765625 C 6696.3486328125 12847.91015625 6697.08837890625 12848.650390625 6697.998046875 12848.650390625 C 6698.90771484375 12848.650390625 6699.6474609375 12847.91015625 6699.6474609375 12847.0009765625 C 6699.6474609375 12846.0908203125 6698.90771484375 12845.3505859375 6697.998046875 12845.3505859375 Z" stroke="none"/>
      <path d="M 6697.998046875 12849.703125 C 6699.138671875 12849.703125 6700.16162109375 12848.978515625 6700.54345703125 12847.8994140625 L 6700.6142578125 12847.7001953125 L 6713.697265625 12847.7001953125 L 6713.697265625 12846.2978515625 L 6700.6142578125 12846.2978515625 L 6700.54345703125 12846.0986328125 C 6700.1630859375 12845.0234375 6699.14013671875 12844.3017578125 6697.998046875 12844.3017578125 C 6696.8564453125 12844.3017578125 6695.83349609375 12845.0234375 6695.45263671875 12846.0986328125 L 6695.3818359375 12846.2978515625 L 6693.29931640625 12846.2978515625 L 6693.29931640625 12847.7001953125 L 6695.3818359375 12847.7001953125 L 6695.45263671875 12847.8994140625 C 6695.83447265625 12848.978515625 6696.857421875 12849.703125 6697.998046875 12849.703125 M 6697.998046875 12845.201171875 C 6698.990234375 12845.201171875 6699.79736328125 12846.0087890625 6699.79736328125 12847.0009765625 C 6699.79736328125 12847.9931640625 6698.990234375 12848.7998046875 6697.998046875 12848.7998046875 C 6697.005859375 12848.7998046875 6696.19873046875 12847.9931640625 6696.19873046875 12847.0009765625 C 6696.19873046875 12846.0087890625 6697.005859375 12845.201171875 6697.998046875 12845.201171875 M 6697.998046875 12850.0029296875 C 6696.73095703125 12850.0029296875 6695.59423828125 12849.1982421875 6695.169921875 12848 L 6692.99951171875 12848 L 6692.99951171875 12845.998046875 L 6695.169921875 12845.998046875 C 6695.5927734375 12844.8046875 6696.7294921875 12844.001953125 6697.998046875 12844.001953125 C 6699.2666015625 12844.001953125 6700.4033203125 12844.8037109375 6700.826171875 12845.998046875 L 6713.9970703125 12845.998046875 L 6713.9970703125 12848 L 6700.826171875 12848 C 6700.40185546875 12849.1982421875 6699.2646484375 12850.0029296875 6697.998046875 12850.0029296875 Z M 6697.998046875 12845.5009765625 C 6697.17138671875 12845.5009765625 6696.49853515625 12846.173828125 6696.49853515625 12847.0009765625 C 6696.49853515625 12847.8271484375 6697.17138671875 12848.5 6697.998046875 12848.5 C 6698.82470703125 12848.5 6699.49755859375 12847.8271484375 6699.49755859375 12847.0009765625 C 6699.49755859375 12846.173828125 6698.82470703125 12845.5009765625 6697.998046875 12845.5009765625 Z" stroke="none" fill="#005cff"/>
    </g>
    <g id="Subtração_47" data-name="Subtração 47" transform="translate(-6465.998 -12536)" fill="#fff">
      <path d="M 6705.9990234375 12849.8525390625 C 6704.79345703125 12849.8525390625 6703.71240234375 12849.087890625 6703.30908203125 12847.9501953125 L 6703.2734375 12847.849609375 L 6703.16748046875 12847.849609375 L 6693.1494140625 12847.849609375 L 6693.1494140625 12846.1484375 L 6703.16748046875 12846.1484375 L 6703.27294921875 12846.1484375 L 6703.30859375 12846.048828125 C 6703.7138671875 12844.9140625 6704.794921875 12844.15234375 6705.9990234375 12844.15234375 C 6707.20458984375 12844.15234375 6708.2841796875 12844.9140625 6708.685546875 12846.0478515625 L 6708.72119140625 12846.1484375 L 6708.8271484375 12846.1484375 L 6713.84716796875 12846.1484375 L 6713.84716796875 12847.849609375 L 6708.8271484375 12847.849609375 L 6708.72119140625 12847.849609375 L 6708.685546875 12847.9501953125 C 6708.28271484375 12849.087890625 6707.203125 12849.8525390625 6705.9990234375 12849.8525390625 Z M 6705.9990234375 12845.3505859375 C 6705.08935546875 12845.3505859375 6704.349609375 12846.0908203125 6704.349609375 12847.0009765625 C 6704.349609375 12847.91015625 6705.08935546875 12848.650390625 6705.9990234375 12848.650390625 C 6706.90869140625 12848.650390625 6707.6484375 12847.91015625 6707.6484375 12847.0009765625 C 6707.6484375 12846.0908203125 6706.90869140625 12845.3505859375 6705.9990234375 12845.3505859375 Z" stroke="none"/>
      <path d="M 6705.9990234375 12849.703125 C 6707.1396484375 12849.703125 6708.16259765625 12848.978515625 6708.54443359375 12847.8994140625 L 6708.615234375 12847.7001953125 L 6713.697265625 12847.7001953125 L 6713.697265625 12846.2978515625 L 6708.615234375 12846.2978515625 L 6708.54443359375 12846.0986328125 C 6708.1640625 12845.0234375 6707.14111328125 12844.3017578125 6705.9990234375 12844.3017578125 C 6704.8583984375 12844.3017578125 6703.833984375 12845.0244140625 6703.4501953125 12846.0986328125 L 6703.37890625 12846.2978515625 L 6693.29931640625 12846.2978515625 L 6693.29931640625 12847.7001953125 L 6703.37939453125 12847.7001953125 L 6703.4501953125 12847.8994140625 C 6703.83251953125 12848.978515625 6704.85693359375 12849.703125 6705.9990234375 12849.703125 M 6705.9990234375 12845.201171875 C 6706.9912109375 12845.201171875 6707.79833984375 12846.0087890625 6707.79833984375 12847.0009765625 C 6707.79833984375 12847.9931640625 6706.9912109375 12848.7998046875 6705.9990234375 12848.7998046875 C 6705.0068359375 12848.7998046875 6704.19970703125 12847.9931640625 6704.19970703125 12847.0009765625 C 6704.19970703125 12846.0087890625 6705.0068359375 12845.201171875 6705.9990234375 12845.201171875 M 6705.9990234375 12850.0029296875 C 6704.73046875 12850.0029296875 6703.59228515625 12849.1982421875 6703.16748046875 12848 L 6692.99951171875 12848 L 6692.99951171875 12845.998046875 L 6703.16748046875 12845.998046875 C 6703.59375 12844.8046875 6704.73193359375 12844.001953125 6705.9990234375 12844.001953125 C 6707.267578125 12844.001953125 6708.404296875 12844.8037109375 6708.8271484375 12845.998046875 L 6713.9970703125 12845.998046875 L 6713.9970703125 12848 L 6708.8271484375 12848 C 6708.40283203125 12849.1982421875 6707.265625 12850.0029296875 6705.9990234375 12850.0029296875 Z M 6705.9990234375 12845.5009765625 C 6705.17236328125 12845.5009765625 6704.49951171875 12846.173828125 6704.49951171875 12847.0009765625 C 6704.49951171875 12847.8271484375 6705.17236328125 12848.5 6705.9990234375 12848.5 C 6706.82568359375 12848.5 6707.49853515625 12847.8271484375 6707.49853515625 12847.0009765625 C 6707.49853515625 12846.173828125 6706.82568359375 12845.5009765625 6705.9990234375 12845.5009765625 Z" stroke="none" fill="#005cff"/>
    </g>
  </g>
</svg>
