<svg width="36" height="16" viewBox="0 0 36 16" fill="none" xmlns="http://www.w3.org/2000/svg">
<path d="M14.7653 15.3119L0 15.317V15.2822C0 15.2629 0.0235443 15.1384 0.0523376 15.0053C0.0812378 14.8725 0.125923 14.6608 0.151886 14.5352C0.177734 14.4096 0.222046 14.1964 0.250183 14.061C0.31955 13.7304 0.388107 13.3997 0.455803 13.0688C0.482399 12.9383 0.526772 12.7249 0.554543 12.5946C0.589859 12.4278 0.624809 12.2609 0.659492 12.094C0.689514 11.949 0.735107 11.7278 0.760849 11.6021C0.786537 11.4765 0.827591 11.283 0.851776 11.172C0.876022 11.0609 0.906944 10.9107 0.920441 10.8383C0.934029 10.7658 0.977859 10.5524 1.0179 10.364C1.05161 10.2062 1.08437 10.0482 1.11609 9.88988C1.13007 9.8174 1.17442 9.60403 1.21473 9.41565C1.25497 9.22739 1.29918 9.01392 1.31293 8.9415C1.32668 8.86909 1.37121 8.65556 1.41177 8.46735C1.45234 8.2789 1.49617 8.0694 1.50907 8.00191C1.52208 7.93427 1.55751 7.76039 1.58795 7.61552C1.61824 7.47058 1.67583 7.19788 1.7157 7.00955C1.75568 6.82117 1.82386 6.49321 1.86726 6.28065C1.91082 6.06813 1.96284 5.81526 1.98285 5.71866C2.04182 5.4346 2.10123 5.15074 2.16122 4.8669C2.19077 4.72684 2.23888 4.49762 2.26815 4.35747C2.29736 4.21745 2.34244 4.00002 2.36829 3.87453C2.39403 3.74892 2.43813 3.53951 2.46611 3.40913C2.49415 3.27866 2.54243 3.04945 2.5733 2.89972C2.60424 2.75003 2.65604 2.52083 2.68842 2.3904C2.72074 2.25998 2.76646 2.10194 2.79011 2.03915C2.81365 1.97633 2.87878 1.84024 2.93476 1.73669L3.03649 1.54842L3.12902 1.42929C3.1798 1.36383 3.27064 1.26044 3.33078 1.19943C3.39094 1.13843 3.49236 1.04669 3.5563 0.995529C3.6201 0.944321 3.71262 0.875229 3.76176 0.842056C3.81088 0.808823 3.90738 0.750641 3.97625 0.712692C4.04502 0.67485 4.14162 0.625305 4.19075 0.602554C4.23988 0.579803 4.34038 0.538177 4.41407 0.510132C4.48771 0.482254 4.62857 0.435333 4.72678 0.405945C4.82503 0.376617 5.00962 0.332352 5.13688 0.307739C5.26403 0.282959 5.46505 0.249939 5.58362 0.234314L5.79908 0.205841L20.5735 0.200378L35.3479 0.194824V0.229706C35.3479 0.248871 35.3243 0.373352 35.2953 0.506393C35.2588 0.674652 35.223 0.843124 35.1878 1.01164C35.1575 1.15657 35.1135 1.36607 35.0898 1.47708C35.0563 1.63512 35.0231 1.79315 34.9902 1.95129C34.959 2.10109 34.9112 2.33035 34.8839 2.46062C34.8565 2.59109 34.8121 2.8045 34.7853 2.93494C34.7586 3.06529 34.714 3.27866 34.6863 3.4091C34.654 3.56125 34.6222 3.71344 34.5908 3.86575C34.566 3.98648 34.521 4.20377 34.491 4.34869C34.461 4.49356 34.4127 4.72278 34.3837 4.85806C34.3547 4.99324 34.3107 5.2027 34.2857 5.32344C34.2607 5.44412 34.2157 5.66151 34.1858 5.80638C34.1558 5.95129 34.1076 6.18047 34.0787 6.31575C34.0497 6.45103 34.0067 6.65649 33.9828 6.77242C33.9167 7.09448 33.8501 7.41649 33.7832 7.73839C33.7589 7.85426 33.7158 8.05988 33.6873 8.19495C33.6508 8.36769 33.6145 8.54034 33.5787 8.71321C33.5474 8.86299 33.5029 9.07614 33.4796 9.18736C33.4561 9.2984 33.4125 9.50786 33.3825 9.65268C33.3472 9.82254 33.3118 9.9924 33.2761 10.1621C33.2478 10.2973 33.2033 10.5108 33.1771 10.6364C33.1512 10.7619 33.1058 10.9793 33.0767 11.1193C33.0474 11.2593 32.9996 11.4885 32.9703 11.6285C32.9412 11.7688 32.8976 11.9781 32.8732 12.0941C32.8402 12.2521 32.8074 12.4101 32.7747 12.5682C32.7396 12.7376 32.7034 12.9067 32.6664 13.0756L32.6126 13.3195L32.5486 13.4883C32.5134 13.5811 32.4603 13.7046 32.4308 13.7625C32.4012 13.8204 32.3411 13.9227 32.2971 13.9897C32.2531 14.0568 32.1919 14.1425 32.1609 14.1805C32.13 14.2185 32.0369 14.3165 31.9539 14.3982L31.8034 14.5468L31.6583 14.6481C31.5785 14.7038 31.4925 14.7606 31.4673 14.7741C31.442 14.7876 31.3459 14.8359 31.2537 14.8812C31.1615 14.9267 31.0313 14.9844 30.9644 15.0095C30.8974 15.0348 30.7647 15.0777 30.6695 15.1049C30.5742 15.1323 30.4722 15.159 30.4427 15.1646C30.4132 15.1701 30.311 15.1908 30.2153 15.2108C30.1197 15.2306 29.9267 15.2604 29.7864 15.2768L29.5313 15.3066L14.7653 15.3119ZM9.51198 11.5583H9.89623L9.90705 11.5304C9.91307 11.5151 9.91796 11.4792 9.91796 11.4507C9.91796 11.4219 9.93064 11.3179 9.94611 11.2193C9.96152 11.1207 9.99787 10.8938 10.0268 10.7151C10.0558 10.5364 10.099 10.2678 10.123 10.1181C10.1458 9.9763 10.1676 9.83426 10.1882 9.69208C10.2 9.60762 10.2143 9.53842 10.2202 9.53842C10.2259 9.53842 10.2508 9.57578 10.2754 9.62148L10.32 9.70448L10.4191 9.80258L10.5183 9.90057L10.6401 9.94858L10.7621 9.99663L10.9073 10.0151L11.0528 10.0337L11.2372 10.0225L11.4216 10.0115L11.6214 9.96062L11.8211 9.90979L11.9283 9.86177C11.9874 9.83534 12.0919 9.77765 12.1606 9.73355L12.2858 9.65353L12.4024 9.53885C12.4666 9.47603 12.5571 9.37488 12.6035 9.31447C12.6499 9.25394 12.6879 9.20003 12.6879 9.19464C12.6879 9.18922 12.7108 9.15182 12.7386 9.1114C12.7665 9.07106 12.8235 8.95889 12.8653 8.86235C12.9072 8.7657 12.9725 8.59187 13.0107 8.47595L13.08 8.26521L13.1157 8.08267C13.1355 7.98221 13.1608 7.81631 13.1721 7.71378L13.1925 7.52754L13.1807 7.36949L13.1688 7.21146L13.1316 7.05331L13.0943 6.89528L13.0339 6.77696L12.9736 6.65852L12.857 6.53709L12.7404 6.41556L12.6025 6.3455L12.4645 6.27534L12.3126 6.23959L12.1606 6.2039L12.0087 6.19298L11.8569 6.18201L11.6877 6.20111L11.5184 6.22012L11.3803 6.25479L11.2423 6.28937L11.1223 6.34406C11.0563 6.37398 10.9602 6.42497 10.9089 6.45731C10.8576 6.48958 10.8045 6.52672 10.7911 6.53987C10.7778 6.55293 10.7457 6.57729 10.7199 6.59381L10.6729 6.62401L10.7057 6.46967C10.7238 6.38484 10.7388 6.30563 10.7392 6.29347L10.74 6.27153H10.0847L10.0273 6.62721C9.99567 6.82292 9.94579 7.12514 9.9164 7.29906C9.85161 7.68263 9.78605 8.06607 9.71973 8.4494C9.69057 8.61841 9.64225 8.88722 9.61238 9.04654C9.58257 9.20596 9.5389 9.43909 9.51529 9.5648C9.49175 9.69035 9.44727 9.92738 9.41672 10.0916C9.3806 10.2848 9.34409 10.4781 9.30722 10.6712C9.27239 10.8529 9.2368 11.0343 9.20035 11.2156C9.17113 11.3605 9.14293 11.4969 9.13747 11.5186L9.12767 11.5582L9.51198 11.5583ZM11.1661 9.52762L11.017 9.53645L10.9195 9.51949L10.8219 9.50267L10.7229 9.45821L10.6237 9.41368L10.5546 9.34877L10.4854 9.28391L10.4455 9.19609C10.4235 9.14775 10.3952 9.06566 10.3828 9.01364L10.36 8.91908L10.3692 8.76773L10.3784 8.61644L10.4243 8.37924C10.4591 8.19806 10.4927 8.01657 10.5254 7.83487C10.5556 7.66582 10.6015 7.41803 10.6272 7.28441L10.6739 7.04132L10.7764 6.95752C10.8328 6.9115 10.922 6.84969 10.9748 6.82037L11.0707 6.76689L11.1957 6.72885L11.3209 6.69075L11.4817 6.68149L11.6426 6.67216L11.7735 6.69968L11.9044 6.72708L11.997 6.76894L12.0894 6.81079L12.1668 6.88736L12.2444 6.96394L12.2861 7.04503C12.3092 7.0896 12.3414 7.17696 12.3579 7.23897L12.3878 7.35184L12.3787 7.68562L12.3695 8.0193L12.3236 8.21655C12.2984 8.32504 12.2504 8.49104 12.2169 8.5854L12.156 8.75702L12.0814 8.89584C12.0403 8.97221 11.9772 9.0755 11.9408 9.12529C11.9046 9.17509 11.8467 9.23964 11.8123 9.26859C11.7707 9.30344 11.728 9.3371 11.6843 9.36948L11.6188 9.41748L11.4672 9.46809L11.3155 9.5188L11.1661 9.52762ZM14.877 10.0103L15.0736 10.0127L15.2702 9.99498C15.3783 9.98535 15.5552 9.96506 15.6633 9.95013C15.7715 9.93526 15.9582 9.90164 16.0784 9.87573L16.2968 9.82843L16.3077 9.74928C16.3137 9.70583 16.3382 9.57626 16.3622 9.46124L16.4059 9.25249L16.3961 9.24301L16.3866 9.2336L16.3198 9.26521C16.283 9.28267 16.1686 9.32431 16.0655 9.3577L15.8781 9.41838L15.6812 9.4559L15.4846 9.49336L15.1718 9.494L14.8591 9.49449L14.7518 9.46082C14.6928 9.44241 14.6061 9.4086 14.5591 9.3857L14.4736 9.34415L14.403 9.28143L14.3324 9.21872L14.2773 9.1241L14.2223 9.02937L14.1877 8.91083L14.1531 8.79208L14.1529 8.57245L14.1526 8.35281L14.1832 8.15694L14.214 7.96107L14.4828 7.94876L14.7517 7.9364L15.7458 7.94272L16.7398 7.94897L16.7698 7.82381C16.7864 7.75497 16.8116 7.61272 16.8259 7.50768L16.852 7.31668L16.8526 7.15607L16.8532 6.99541L16.8249 6.87537L16.7965 6.75549L16.7497 6.67607C16.7241 6.6324 16.6786 6.56909 16.6489 6.53534C16.6193 6.50166 16.5663 6.45415 16.5311 6.42979C16.496 6.40544 16.4272 6.3645 16.378 6.33881L16.2885 6.2921L16.1325 6.25517L15.9764 6.21829L15.7841 6.20021L15.5916 6.18207L15.4129 6.19347L15.2343 6.20497L15.0198 6.24542L14.8054 6.28595L14.6713 6.33855C14.5976 6.36745 14.485 6.42027 14.421 6.45592C14.3573 6.4915 14.2687 6.54945 14.2246 6.58467C14.1803 6.61989 14.1037 6.68839 14.0543 6.73688C14.005 6.78535 13.9318 6.87231 13.8921 6.93034C13.8522 6.98834 13.7911 7.09099 13.7562 7.15868C13.7213 7.22633 13.676 7.32112 13.6553 7.36945C13.6346 7.41771 13.5971 7.51651 13.5719 7.58897C13.5466 7.66144 13.507 7.79977 13.4838 7.89636C13.4565 8.01346 13.4329 8.13126 13.4131 8.24968L13.3847 8.42754L13.385 8.68884L13.3852 8.95012L13.4124 9.06432C13.4272 9.12709 13.4559 9.22197 13.4758 9.27512C13.4957 9.32816 13.5328 9.4073 13.5579 9.45067C13.5831 9.49411 13.6368 9.56422 13.6774 9.60623C13.7179 9.6483 13.7912 9.71214 13.8404 9.74811C13.8896 9.78397 13.977 9.83453 14.0347 9.86049L14.1398 9.90742L14.2863 9.94226C14.3669 9.96126 14.4885 9.98412 14.5566 9.99268C14.6247 10.0012 14.7688 10.0093 14.877 10.0103ZM15.2135 7.53625C14.7188 7.53625 14.314 7.53284 14.314 7.52849C14.314 7.52415 14.3352 7.46298 14.361 7.3924C14.3867 7.32176 14.432 7.21671 14.4616 7.15891L14.5154 7.0537L14.6336 6.9382L14.7518 6.82256L14.8681 6.76802C14.9319 6.73793 15.0164 6.70525 15.0556 6.69534C15.095 6.68539 15.2076 6.67223 15.3058 6.66612L15.4847 6.65477L15.6219 6.6721L15.759 6.68945L15.8587 6.73441L15.9585 6.77925L16.0132 6.83722C16.0432 6.86911 16.079 6.91605 16.0928 6.94151L16.1178 6.98787L16.1343 7.09077L16.1509 7.1937L16.1319 7.36494L16.113 7.53619L15.2135 7.53625ZM20.5598 10.0104L20.7565 10.0127L20.9798 9.98663C21.1026 9.97234 21.266 9.94868 21.3431 9.93402C21.4361 9.9155 21.5286 9.894 21.62 9.86932C21.6954 9.84834 21.7636 9.82587 21.7715 9.81908C21.7795 9.81233 21.8008 9.73264 21.8189 9.64194C21.8369 9.55127 21.8598 9.42957 21.8694 9.37161C21.8791 9.31364 21.8842 9.26324 21.8805 9.25934C21.877 9.25558 21.8638 9.26047 21.8513 9.27025C21.8388 9.28004 21.7511 9.31627 21.6565 9.35078L21.4843 9.41362L21.2393 9.46019L20.9943 9.50691L20.7859 9.5L20.5775 9.49295L20.4592 9.45258L20.3408 9.41219L20.2494 9.33366L20.1579 9.255L20.0973 9.14642L20.0367 9.03793L20.0077 8.89264L19.9789 8.74745L19.9791 8.55896L19.9792 8.37053L20.0143 8.14212L20.0494 7.91382L20.0865 7.79077C20.107 7.72319 20.13 7.64426 20.138 7.61523C20.1458 7.58624 20.1785 7.50325 20.2107 7.43083C20.243 7.35841 20.3005 7.24646 20.3385 7.18198L20.4076 7.06488L20.4926 6.97835L20.5777 6.8918L20.6676 6.83705L20.7575 6.78226L20.8731 6.74725C20.9367 6.72804 21.049 6.70305 21.1227 6.69182L21.2568 6.67122L21.4532 6.68095L21.6499 6.69069L21.8822 6.73639L22.1145 6.78204L22.209 6.81662C22.261 6.83572 22.3058 6.85129 22.3086 6.85129C22.3113 6.85129 22.3238 6.78606 22.3363 6.70631C22.3487 6.62668 22.3709 6.49557 22.3855 6.41508C22.4001 6.33443 22.4087 6.26501 22.4043 6.26083C22.3999 6.25656 22.3302 6.24574 22.2492 6.23665C22.1681 6.22762 21.948 6.2115 21.7597 6.20079L21.4177 6.18152L21.1764 6.19972L20.9351 6.21793L20.7564 6.25475L20.5777 6.29167L20.4626 6.33694C20.3992 6.36183 20.3065 6.40678 20.2566 6.43669C20.2087 6.46538 20.1615 6.49524 20.1151 6.52634C20.0872 6.54565 20.003 6.62106 19.9276 6.69389L19.7908 6.82631L19.7143 6.93633C19.6724 6.99686 19.5996 7.12289 19.5528 7.21664L19.4677 7.38705L19.4024 7.57141C19.3664 7.67282 19.3163 7.83878 19.291 7.9402L19.245 8.12466L19.2282 8.29153L19.2115 8.4584L19.2116 8.67793L19.2119 8.89751L19.2288 9.02515L19.2456 9.15294L19.2991 9.28438L19.3526 9.41571L19.4145 9.5106L19.4762 9.60565L19.5745 9.70068L19.6729 9.79562L19.7769 9.84978L19.8809 9.90378L20.0176 9.94109C20.0925 9.96153 20.2012 9.98514 20.2587 9.99348C20.3162 10.0016 20.4516 10.0094 20.5598 10.0104ZM23.4994 10.0041L23.7406 9.99728L23.8925 9.959L24.0444 9.9207L24.1428 9.87511C24.1968 9.84995 24.2852 9.80045 24.3394 9.76489C24.3935 9.72948 24.4771 9.66194 24.5253 9.61507C24.5734 9.56802 24.645 9.4879 24.6842 9.43695C24.7233 9.386 24.7577 9.34663 24.7606 9.34935C24.7636 9.35223 24.7546 9.43347 24.7406 9.52986C24.7267 9.62636 24.7152 9.75464 24.715 9.815L24.7146 9.92476H25.3706L25.3807 9.67447L25.3907 9.42418L25.4375 9.09926C25.4632 8.92052 25.5048 8.65578 25.5299 8.51091C25.555 8.36597 25.5984 8.12103 25.6268 7.96643C25.6549 7.81192 25.6996 7.57083 25.726 7.43077L25.774 7.17615L25.7756 6.95613L25.7772 6.73618L25.7267 6.63455L25.676 6.53287L25.6074 6.46817L25.5388 6.40335L25.4262 6.34732L25.3135 6.29109L25.1456 6.25436L24.9776 6.21759L24.7464 6.20042L24.5152 6.18314L24.2175 6.20128C24.0536 6.21123 23.8231 6.23088 23.7052 6.24495L23.4907 6.27048L23.3446 6.27107L23.1985 6.27165L23.1773 6.37274C23.1656 6.42819 23.133 6.56017 23.105 6.66597C23.0769 6.77176 23.0567 6.86076 23.0599 6.86382C23.0629 6.86708 23.1412 6.84949 23.2335 6.82512C23.3259 6.80067 23.5222 6.76053 23.6696 6.73581L23.9375 6.6909L24.1788 6.68121L24.4201 6.67133L24.5755 6.69807L24.7308 6.72493L24.8345 6.77519L24.9383 6.82556L24.9963 6.91058L25.0544 6.99568L25.0536 7.12979L25.0527 7.26396L25.022 7.41113L24.9912 7.5583L24.3482 7.56061L23.7051 7.56285L23.4947 7.61963C23.3789 7.65083 23.2508 7.6922 23.2099 7.71162C23.169 7.73105 23.128 7.74701 23.1189 7.74701C23.1099 7.74701 23.041 7.78441 22.966 7.83043L22.8295 7.91376L22.7221 8.01926C22.6629 8.07715 22.5874 8.16412 22.5542 8.21249C22.5211 8.26077 22.4671 8.36153 22.4344 8.43668L22.3751 8.57298L22.3476 8.72643L22.3202 8.87968V9.20164L22.3463 9.33565L22.3724 9.4695L22.4208 9.55701C22.4474 9.60501 22.4963 9.67548 22.5293 9.71349L22.5896 9.78241L22.6963 9.84619L22.8032 9.91016L22.9256 9.94408C22.9929 9.96275 23.0953 9.9854 23.1532 9.99443L23.2585 10.0107L23.4994 10.0041ZM23.7228 9.5128L23.5798 9.52028L23.4851 9.49658C23.433 9.48351 23.3541 9.45451 23.3096 9.43198L23.2286 9.39114L23.1844 9.33951C23.1601 9.31104 23.1231 9.25537 23.1019 9.21567L23.0636 9.14336L23.0562 8.97441L23.0485 8.80562L23.0789 8.70325C23.0955 8.6469 23.1345 8.54912 23.1658 8.48601L23.2223 8.37117L23.3307 8.26552L23.4389 8.15973L23.554 8.10526L23.669 8.05087L23.812 8.01743L23.9549 7.98404H24.8485L24.8767 7.99554L24.9049 8.00699L24.8811 8.14485C24.8681 8.22063 24.8369 8.35779 24.8118 8.44946C24.7867 8.54131 24.7425 8.6761 24.7135 8.74937C24.6845 8.82237 24.6608 8.88702 24.6608 8.89296C24.6608 8.8989 24.6314 8.95215 24.5954 9.01129L24.5302 9.11906L24.4231 9.22343C24.3642 9.28064 24.3095 9.32762 24.3015 9.32762C24.2935 9.32762 24.2575 9.34744 24.2213 9.37157L24.1554 9.41545L24.0105 9.46051L23.8655 9.50557L23.7228 9.5128ZM29.5396 10.0103L29.7093 10.0124L29.8702 9.98669C29.9587 9.97267 30.0712 9.94992 30.1204 9.93622C30.1695 9.92252 30.2581 9.88715 30.317 9.85744L30.4242 9.80344L30.5165 9.72371L30.6088 9.64384L30.7059 9.51643C30.7593 9.44649 30.8077 9.37735 30.8134 9.36284L30.8237 9.3365L30.8146 9.42433C30.8083 9.48309 30.8001 9.54169 30.79 9.60002C30.7813 9.6483 30.7689 9.74115 30.7625 9.80627L30.7506 9.92487H31.4518V9.68768L31.5051 9.23985C31.5345 8.99345 31.578 8.66556 31.6016 8.51102C31.6253 8.35645 31.662 8.13521 31.6832 8.0193C31.704 7.90338 31.7413 7.69391 31.7658 7.55385C31.7903 7.41386 31.8345 7.16882 31.864 7.00943C31.8936 6.85001 31.941 6.59714 31.9692 6.44734C31.9975 6.29767 32.0414 6.0645 32.0669 5.92931C32.0923 5.79407 32.1379 5.55687 32.1681 5.40237C32.1998 5.24113 32.2325 5.08015 32.2663 4.91933C32.2901 4.80827 32.3096 4.71147 32.3096 4.70424V4.69102H31.5445L31.5333 4.8008C31.5271 4.86127 31.4979 5.06067 31.4682 5.24429C31.4332 5.46103 31.3975 5.67761 31.361 5.89413C31.34 6.019 31.319 6.14391 31.2984 6.26888L31.2887 6.32741L31.2586 6.31483C31.2419 6.30783 31.152 6.28326 31.0587 6.26024L30.8889 6.21834L30.6567 6.20058L30.4242 6.18282L30.2275 6.20079L30.031 6.21883L29.8523 6.26324L29.6736 6.30762L29.5038 6.38901L29.334 6.47041L29.2089 6.56139L29.0839 6.65236L28.9758 6.76625C28.9164 6.82892 28.8306 6.93242 28.785 6.99648L28.7024 7.11267L28.6052 7.31133C28.5518 7.42061 28.4868 7.56541 28.4608 7.63295C28.4348 7.70065 28.3888 7.85045 28.3587 7.96605L28.3041 8.17619L28.2771 8.44925L28.2501 8.72197L28.2704 8.94154L28.2907 9.16113L28.3146 9.24013C28.3277 9.28368 28.3555 9.36118 28.3762 9.41223L28.4138 9.50536L28.4827 9.59686L28.5515 9.68837L28.6301 9.75163L28.7086 9.81483L28.8158 9.86722C28.8749 9.89587 28.9737 9.93317 29.0357 9.94975C29.0976 9.96645 29.198 9.98657 29.2591 9.99434C29.32 10.0018 29.4462 10.0092 29.5396 10.0103ZM29.8443 9.51204L29.7093 9.51894L29.6184 9.50301C29.5683 9.49411 29.4882 9.47029 29.4402 9.45013L29.3532 9.41351L29.2799 9.35449L29.2068 9.29546L29.1523 9.19298L29.098 9.09055L29.0729 8.97639L29.0482 8.86224L29.0503 8.63388L29.0524 8.40559L29.0812 8.20349L29.11 8.00165L29.1547 7.86116C29.1795 7.78387 29.1997 7.71092 29.1998 7.69911C29.2 7.68723 29.2243 7.62413 29.2538 7.55862C29.2885 7.48296 29.3251 7.40813 29.3638 7.33423C29.3945 7.27626 29.4521 7.18594 29.4916 7.1335C29.5313 7.08105 29.6017 7.002 29.6484 6.95779C29.6949 6.91374 29.769 6.85585 29.8131 6.82925L29.893 6.78091L30.0335 6.73312L30.174 6.68518L30.4689 6.68506H30.7639L30.9336 6.73137C31.0269 6.7569 31.1262 6.78633 31.1539 6.79703L31.2045 6.81635L31.1946 6.86452C31.1892 6.89099 31.1678 7.00755 31.1473 7.12343C31.1269 7.2394 31.0863 7.46074 31.0574 7.61523C31.0284 7.76976 30.9841 8.00298 30.9586 8.13335C30.9333 8.26382 30.8966 8.42978 30.877 8.50218C30.8569 8.57663 30.8364 8.65089 30.8157 8.72523C30.8014 8.77539 30.7677 8.86235 30.7408 8.91838C30.7137 8.97435 30.6663 9.05582 30.6356 9.09932C30.6047 9.14278 30.5527 9.20308 30.5197 9.23311C30.4869 9.26331 30.4158 9.31682 30.3617 9.35208L30.2634 9.41635L30.1213 9.46062L29.9793 9.50493L29.8443 9.51204ZM3.54346 9.92487H3.97758L4.00878 9.73611C4.02586 9.63219 4.05936 9.43266 4.08311 9.29268L4.18137 8.71309C4.21167 8.53433 4.25716 8.26955 4.28237 8.12466C4.30753 7.9798 4.34764 7.75504 4.3713 7.62524C4.39511 7.49532 4.41904 7.38475 4.42455 7.37929L4.43462 7.36945H6.76961L6.78261 7.38219L6.79561 7.39491L6.77535 7.49628C6.76426 7.55209 6.7313 7.7242 6.70224 7.87869C6.67307 8.03326 6.62415 8.29411 6.59333 8.45834C6.56099 8.63116 6.52814 8.80391 6.49469 8.97646C6.47115 9.09723 6.4234 9.34999 6.38868 9.53842C6.35399 9.72682 6.32564 9.89079 6.32575 9.90292L6.32596 9.92487H7.1979L7.21717 9.81511C7.22783 9.75475 7.24491 9.64609 7.25518 9.57362C7.26534 9.50117 7.29012 9.34705 7.31008 9.23117C7.33004 9.11522 7.36986 8.88596 7.39865 8.72176C7.42739 8.55753 7.47565 8.27698 7.50573 8.0983C7.53582 7.91956 7.58043 7.65875 7.60501 7.51875C7.63599 7.34283 7.66832 7.16727 7.70188 6.99184C7.73067 6.84198 7.77868 6.58922 7.80858 6.42975C7.8385 6.27043 7.88318 6.02933 7.90792 5.89409C7.9328 5.75891 7.97803 5.5139 8.00852 5.34967C8.03897 5.18542 8.07756 4.99377 8.09404 4.92372L8.12418 4.7963H7.24132L7.22933 4.87984C7.22274 4.9256 7.20145 5.05426 7.18196 5.16519C7.16243 5.2764 7.12705 5.47388 7.10324 5.60429C7.07943 5.73477 7.03597 5.98361 7.00653 6.15761C6.97774 6.32796 6.95002 6.49841 6.92336 6.66907L6.89356 6.86435L6.24558 6.87726L5.59754 6.89014L5.05483 6.87752C4.75631 6.87051 4.51041 6.8634 4.50837 6.86185C4.50628 6.86008 4.51645 6.79184 4.53084 6.71007C4.5499 6.60469 4.57012 6.49953 4.59163 6.39464C4.61904 6.26004 4.64563 6.12544 4.6715 5.99059C4.69649 5.86021 4.72474 5.69823 4.73442 5.63058C4.74395 5.56297 4.76412 5.45039 4.77906 5.38022C4.79404 5.31023 4.8225 5.16273 4.8423 5.05254C4.86205 4.94225 4.88315 4.83948 4.88915 4.82414L4.89995 4.79625H4.0242L3.99627 4.95C3.9808 5.03456 3.9602 5.15509 3.95051 5.2178C3.94082 5.28062 3.90817 5.48213 3.87799 5.66568C3.84791 5.84924 3.80328 6.12192 3.77904 6.27159L3.68099 6.87752C3.64648 7.08849 3.61015 7.29933 3.57192 7.50977C3.54014 7.68257 3.50776 7.85527 3.47469 8.02791C3.45141 8.14856 3.40714 8.37785 3.37626 8.53723C3.34383 8.70427 3.31045 8.87112 3.27604 9.03783C3.25179 9.15364 3.22503 9.28802 3.21664 9.33635C3.20807 9.38467 3.1804 9.52393 3.15509 9.64595C3.12977 9.76781 3.10906 9.88042 3.10906 9.89626V9.92473L3.54346 9.92487ZM8.35018 9.92487H8.73455L8.7454 9.89699C8.75139 9.88168 8.75628 9.84164 8.75628 9.80804C8.75628 9.77434 8.78046 9.59917 8.80996 9.41866C8.87737 9.00754 8.94648 8.59674 9.01732 8.18611C9.04761 8.01314 9.07961 7.84044 9.1131 7.66797C9.14159 7.5231 9.18531 7.29784 9.21025 7.16742C9.23508 7.037 9.28415 6.78894 9.31916 6.61607C9.35411 6.44322 9.38712 6.29488 9.39248 6.28642L9.40221 6.27101L9.01346 6.27567L8.62477 6.28043L8.59235 6.5089C8.57457 6.63443 8.53562 6.88341 8.50586 7.06203C8.47611 7.24078 8.4311 7.51352 8.40574 7.66797C8.37517 7.85275 8.34253 8.03712 8.30779 8.22121C8.27921 8.37096 8.23543 8.60011 8.21045 8.73059C8.18552 8.86111 8.14072 9.09021 8.11097 9.2399C8.08115 9.38971 8.04122 9.58723 8.02217 9.67897C8.00307 9.7709 7.98258 9.86369 7.97663 9.88531L7.96581 9.92487H8.35018ZM17.3405 9.92487H17.722L17.7334 9.76619C17.7398 9.67891 17.7613 9.50316 17.7814 9.37537C17.8015 9.24773 17.8427 8.99309 17.8729 8.80962C17.9111 8.58278 17.9525 8.3564 17.9975 8.13068C18.0359 7.94084 18.0792 7.75208 18.0939 7.71136C18.1085 7.67053 18.1205 7.62637 18.1205 7.61316C18.1205 7.59988 18.1492 7.52774 18.1843 7.45288C18.2193 7.37799 18.2847 7.26332 18.3295 7.19797L18.4109 7.07927L18.5199 6.98004L18.6289 6.88084L18.7634 6.81773L18.8979 6.75464L19.1034 6.75571L19.309 6.75684L19.41 6.78642C19.4655 6.80281 19.5158 6.81618 19.5217 6.81618C19.5274 6.81618 19.5323 6.79745 19.5323 6.77466C19.5323 6.75191 19.5524 6.6362 19.577 6.51756C19.6016 6.39903 19.6216 6.29701 19.6216 6.29097C19.6216 6.28482 19.5633 6.26233 19.492 6.24103C19.4208 6.21979 19.3223 6.19753 19.2732 6.19153L19.1837 6.18066L19.0677 6.20085C19.0038 6.21193 18.9088 6.23643 18.8567 6.25537C18.8044 6.27415 18.7181 6.31699 18.6649 6.35031C18.6118 6.38387 18.5291 6.44901 18.4812 6.49507C18.4333 6.54128 18.3527 6.63443 18.3021 6.70203C18.2627 6.75458 18.2235 6.80725 18.1846 6.86006L18.159 6.89517L18.1745 6.82497C18.183 6.78621 18.2068 6.65974 18.2273 6.54395C18.2478 6.42802 18.269 6.31927 18.2742 6.30241L18.2838 6.27165H17.6023V6.31398C17.6023 6.33731 17.5821 6.47752 17.5576 6.62566C17.533 6.77396 17.4925 7.02158 17.4675 7.17619C17.4425 7.3307 17.3982 7.5995 17.3691 7.77333C17.338 7.95796 17.3051 8.14238 17.2706 8.32648C17.2033 8.67804 17.1345 9.02931 17.0642 9.38028C17.0341 9.53009 16.9981 9.70691 16.9843 9.77332C16.9702 9.83957 16.9589 9.90073 16.9589 9.90935V9.92476L17.3405 9.92487ZM26.3977 9.92487H26.7878V9.69016L26.8328 9.39912C26.8576 9.23921 26.8984 8.98561 26.9235 8.83597C26.9486 8.68622 26.9799 8.49655 26.993 8.41435C27.0062 8.33226 27.041 8.15454 27.0705 8.01926C27.1 7.884 27.1367 7.73775 27.1523 7.69429C27.1677 7.65089 27.1806 7.60524 27.1807 7.59299C27.1809 7.58072 27.2141 7.5018 27.2545 7.41766L27.3282 7.26454L27.4254 7.13771L27.5225 7.01088L27.6287 6.93231C27.6873 6.88902 27.7812 6.83176 27.8377 6.8049L27.9404 6.75603L28.1638 6.75754L28.3871 6.75908L28.4751 6.78687L28.5631 6.81464L28.5778 6.80553L28.5926 6.79654L28.5935 6.74051C28.5938 6.70964 28.6129 6.595 28.6359 6.4856L28.6776 6.28674L28.6308 6.26871C28.5856 6.25221 28.5402 6.23703 28.4943 6.22301L28.4051 6.19528L28.2442 6.19577L28.0834 6.19614L27.9523 6.24153L27.8212 6.28679L27.7229 6.34518L27.6243 6.40356L27.4964 6.53528L27.3684 6.66698L27.2996 6.7692C27.2619 6.82533 27.2286 6.86879 27.2257 6.86569C27.2227 6.86269 27.2434 6.74559 27.2714 6.60555C27.2994 6.46544 27.3227 6.33304 27.3231 6.31131L27.3239 6.27182H26.6627V6.283C26.6627 6.28914 26.6462 6.40186 26.626 6.53334C26.6059 6.66484 26.5654 6.91862 26.5362 7.09737C26.501 7.31111 26.4654 7.52475 26.4294 7.73839C26.3979 7.92313 26.3651 8.10748 26.3307 8.2917C26.3058 8.42206 26.2618 8.65123 26.2327 8.80103C26.2037 8.95076 26.1559 9.19185 26.1267 9.33672L26.0404 9.7626L26.0075 9.92502L26.3977 9.92487ZM9.10636 5.63908L9.21474 5.63945L9.30101 5.61061L9.38729 5.58171L9.46364 5.50557L9.53997 5.42957L9.5801 5.32809L9.62035 5.22668L9.62174 5.07742L9.62323 4.92822L9.5875 4.86983L9.55179 4.81149L9.4896 4.77376L9.42727 4.73582H9.1586L9.06714 4.77608L8.97574 4.81631L8.92264 4.87224L8.86956 4.92822L8.82781 5.02481L8.78612 5.12135L8.77826 5.27185L8.77044 5.42229L8.80919 5.4971L8.84798 5.57181L8.92296 5.60526L8.99778 5.6386L9.10636 5.63908Z" fill="black"/>
</svg>
