<svg width="38" height="38" viewBox="0 0 38 38" fill="none" xmlns="http://www.w3.org/2000/svg">
<path d="M23.2239 19.0006C23.2239 21.2749 21.3803 23.1184 19.106 23.1184C16.8317 23.1184 14.9882 21.2764 14.9882 19.0006C14.9882 16.7263 16.8317 14.8827 19.106 14.8827C21.3803 14.8827 23.2239 16.7263 23.2239 19.0006ZM29.1621 14.0104C29.2208 15.312 29.2331 15.7026 29.2331 19.0006C29.2331 22.2985 29.2208 22.6892 29.1621 23.9923C29.0077 27.3119 27.4498 28.9038 24.0993 29.0551C22.7962 29.1137 22.4056 29.1276 19.106 29.1276C15.8081 29.1276 15.4159 29.1153 14.1159 29.0566C10.7592 28.9038 9.20442 27.3088 9.0531 23.9939C8.99289 22.6892 8.97899 22.2985 8.97899 19.0006C8.97899 15.7026 8.99289 15.312 9.05156 14.0104C9.20442 10.6877 10.7638 9.09895 14.1143 8.94764C15.4174 8.88742 15.8081 8.87507 19.106 8.87507C22.404 8.87507 22.7962 8.88742 24.0978 8.94609C27.4452 9.09895 29.0077 10.6877 29.1621 14.0104ZM25.4488 19.0006C25.4488 15.4973 22.6078 12.6579 19.106 12.6579C15.6027 12.6579 12.7633 15.4973 12.7633 19.0006C12.7633 22.5039 15.6043 25.3433 19.106 25.3433C22.6094 25.3433 25.4488 22.5039 25.4488 19.0006ZM27.1811 12.4077C27.1811 11.5894 26.5172 10.9255 25.6989 10.9255C24.8806 10.9255 24.2167 11.5894 24.2167 12.4077C24.2167 13.226 24.8806 13.89 25.6989 13.89C26.5188 13.89 27.1811 13.226 27.1811 12.4077ZM37.634 0.472656V37.5285H0.578125V0.472656H37.634ZM31.458 19.0006C31.458 15.647 31.4441 15.2255 31.3839 13.9085C31.1816 9.42782 28.6896 6.92964 24.1997 6.72429C22.8811 6.66253 22.4611 6.64863 19.106 6.64863C15.751 6.64863 15.3325 6.66253 14.014 6.72274C9.52711 6.92809 7.03511 9.41701 6.82821 13.9069C6.76799 15.2255 6.7541 15.647 6.7541 19.0006C6.7541 22.3557 6.76799 22.7756 6.82821 24.0927C7.03511 28.5795 9.52402 31.0731 14.014 31.2784C15.3325 31.3386 15.7509 31.3525 19.106 31.3525C22.4611 31.3525 22.8811 31.3386 24.1997 31.2784C28.6804 31.0731 31.1816 28.5841 31.3839 24.0927C31.4441 22.7756 31.458 22.3557 31.458 19.0006Z" fill="black"/>
</svg>
