<svg width="38" height="38" viewBox="0 0 38 38" fill="none" xmlns="http://www.w3.org/2000/svg">
<path d="M0.365723 0.472656V37.5285H37.4216V0.472656H0.365723ZM12.7177 29.8085H8.08569V12.8246H12.7177V29.8085ZM10.4017 10.8668C8.91018 10.8668 7.69969 9.64707 7.69969 8.14322C7.69969 6.63937 8.91018 5.41961 10.4017 5.41961C11.8932 5.41961 13.1037 6.63937 13.1037 8.14322C13.1037 9.64707 11.8947 10.8668 10.4017 10.8668ZM31.2456 29.8085H26.6136V21.156C26.6136 15.9558 20.4376 16.3495 20.4376 21.156V29.8085H15.8057V12.8246H20.4376V15.5498C22.5946 11.557 31.2456 11.2621 31.2456 19.3727V29.8085Z" fill="black"/>
</svg>
