<svg width="27" height="17" viewBox="0 0 27 17" fill="none" xmlns="http://www.w3.org/2000/svg">
<path d="M13.1039 14.6658C11.7265 15.7488 9.98922 16.3948 8.10098 16.3948C3.62708 16.3948 0.000976562 12.7687 0.000976562 8.29482C0.000976562 3.82092 3.62708 0.194824 8.10098 0.194824C9.98922 0.194824 11.7265 0.840827 13.1039 1.9238C14.4812 0.8413 16.217 0.194824 18.1009 0.194824C22.5676 0.194824 26.2009 3.82812 26.2009 8.29482C26.2009 12.7615 22.5676 16.3948 18.1009 16.3948C16.217 16.3948 14.4812 15.7483 13.1039 14.6658ZM18.1009 14.395C21.4651 14.395 24.2011 11.6581 24.2011 8.29482C24.2011 4.93152 21.4651 2.19462 18.1009 2.19462C16.7653 2.19462 15.5286 2.6262 14.5227 3.35718C15.575 4.72391 16.201 6.43634 16.201 8.29482C16.201 10.1533 15.575 11.8657 14.5227 13.2325C15.5286 13.9634 16.7653 14.395 18.1009 14.395Z" fill="black"/>
</svg>
