<svg width="34" height="9" viewBox="0 0 34 9" fill="none" xmlns="http://www.w3.org/2000/svg">
<path d="M14.2908 8.90571H13.0981C12.9454 8.90571 12.8613 8.7661 12.9699 8.6126L14.2623 6.77647L12.9446 2.9181C12.8752 2.71728 12.9642 2.55402 13.183 2.55402H14.2443C14.4476 2.55402 14.5587 2.63564 14.6027 2.78422L15.358 5.23917L17.0479 2.78996C17.1589 2.62911 17.2365 2.55232 17.43 2.55232H18.5591C18.764 2.55232 18.8228 2.74013 18.6979 2.9189L14.6452 8.73177C14.5786 8.84203 14.4596 8.90812 14.3328 8.90811C14.3189 8.90811 14.3049 8.90732 14.2908 8.90571ZM24.4855 5.23103C24.6022 3.66021 25.6905 2.43475 27.3046 2.40132C27.9993 2.38494 28.4973 2.59237 28.6925 3.05447C28.748 3.18504 28.8076 3.16218 28.8296 3.03243L28.8721 2.7834C28.899 2.62499 28.9496 2.56702 29.0533 2.56702H30.2028C30.3571 2.56702 30.4069 2.66666 30.3743 2.86997L29.7293 6.91769C29.6861 7.19045 29.6003 7.26142 29.424 7.26142H28.3774C28.2369 7.26142 28.1773 7.1814 28.1969 7.0304L28.2353 6.74135C28.2508 6.62055 28.1414 6.67118 28.0336 6.76912L28.0386 6.77155C27.6189 7.15532 27.2466 7.40023 26.4138 7.40023C25.266 7.40023 24.3957 6.44582 24.4855 5.23103ZM26.0791 4.91264C25.9787 5.59186 26.4628 6.14618 27.1576 6.14618C27.8524 6.14618 28.5023 5.59186 28.6026 4.91264C28.7031 4.23334 28.2189 3.67902 27.5242 3.67902C26.8294 3.67902 26.1796 4.23334 26.0791 4.91264ZM6.30552 5.23103C6.42225 3.66021 7.51057 2.43475 9.12454 2.40132C9.81937 2.38494 10.3174 2.59237 10.5125 3.05447C10.568 3.18504 10.6276 3.16218 10.6496 3.03243L10.6921 2.7834C10.719 2.62499 10.7697 2.56702 10.8733 2.56702H12.0245C12.1788 2.56702 12.2286 2.66666 12.1959 2.86997L11.551 6.91769C11.5077 7.19045 11.422 7.26142 11.2456 7.26142H10.199C10.0586 7.26142 9.99902 7.1814 10.0185 7.0304L10.0569 6.74135C10.0724 6.62055 9.96302 6.67118 9.85529 6.76912L9.85852 6.77155C9.43889 7.15532 9.06656 7.40023 8.23385 7.40023C7.086 7.40023 6.21574 6.44582 6.30552 5.23103ZM7.89998 4.91264C7.79954 5.59186 8.28367 6.14618 8.9784 6.14618C9.67402 6.14618 10.3231 5.59186 10.4235 4.91264C10.5239 4.23334 10.0398 3.67902 9.34499 3.67902C8.65025 3.67902 8.00034 4.23334 7.89998 4.91264ZM31.9851 7.26797H30.7768C30.7342 7.26986 30.6931 7.25268 30.6645 7.22109C30.6359 7.18949 30.6229 7.14687 30.629 7.10469L31.6904 0.380687C31.7113 0.286206 31.7944 0.218535 31.8912 0.217426H33.0995C33.142 0.215503 33.1832 0.232624 33.2118 0.264216C33.2404 0.295833 33.2534 0.338507 33.2473 0.380687L32.1859 7.10469C32.1657 7.19985 32.0823 7.26825 31.985 7.26958L31.9851 7.26797ZM18.9584 7.24673C18.7705 7.24673 18.7052 7.12673 18.7469 6.85811L19.7208 0.616624C19.769 0.309651 19.8842 0.195312 20.0939 0.195312H22.9139V0.196989C23.9809 0.196989 24.9655 0.775781 24.8308 2.21844C24.6676 3.93288 23.7491 4.88156 22.3 4.88568H21.0345C20.8525 4.88568 20.7642 5.03424 20.7169 5.33881L20.472 6.89565C20.4352 7.13079 20.3144 7.24673 20.1364 7.24673H18.9584ZM22.2077 1.55794L21.3047 1.562L20.9953 3.53773H21.9546C22.5546 3.51488 22.953 3.09936 22.9931 2.3499C23.0175 1.88867 22.7071 1.55794 22.2131 1.55793C22.2113 1.55793 22.2095 1.55793 22.2077 1.55794ZM0.779214 7.24673C0.591386 7.24673 0.526057 7.12673 0.56772 6.85811L1.54004 0.618252C1.58826 0.311266 1.70334 0.196989 1.91318 0.196989H4.73311H4.7355C5.80256 0.196989 6.78716 0.775781 6.65248 2.21844C6.48921 3.93288 5.57076 4.88156 4.12161 4.88568H2.8553C2.67322 4.88568 2.58504 5.03424 2.53773 5.33881L2.29283 6.89565C2.2561 7.13079 2.13523 7.24673 1.95726 7.24673H0.779214ZM4.02933 1.55794L3.12636 1.562L2.81694 3.53773H3.77627C4.37629 3.51488 4.77475 3.09936 4.81474 2.3499C4.83909 1.88867 4.52879 1.55794 4.03475 1.55793C4.03293 1.55793 4.03116 1.55793 4.02933 1.55794Z" fill="black"/>
</svg>
