<svg width="24" height="24" viewBox="0 0 24 24" fill="none" xmlns="http://www.w3.org/2000/svg">
<path d="M9.75305 22.5806L5.30261 18.1302H5.99524C6.91418 18.1302 7.77893 17.7722 8.42883 17.1227L11.9554 13.5959C12.202 13.3493 12.6322 13.3485 12.8788 13.5959L16.3927 17.1097C17.0426 17.7595 17.9071 18.1173 18.8263 18.1173H19.2496L14.7863 22.5806C14.0914 23.2755 13.1805 23.6229 12.2697 23.6229C11.3588 23.6229 10.4479 23.2755 9.75305 22.5806ZM1.59827 14.4259C0.20813 13.0358 0.20813 10.7823 1.59827 9.39255L4.30603 6.68471C4.36292 6.70612 4.42297 6.72134 4.48718 6.72134H5.99524C6.62903 6.72134 7.24963 6.97835 7.69763 7.42662L11.2247 10.9536C11.5536 11.2821 11.9852 11.4468 12.4171 11.4468C12.849 11.4468 13.2809 11.2821 13.6097 10.9533L17.1239 7.43932C17.5717 6.9912 18.1923 6.73404 18.8263 6.73404H20.0524C20.1202 6.73404 20.1847 6.71912 20.244 6.69534L22.941 9.39255C24.3312 10.7823 24.3312 13.0358 22.941 14.4259L20.2443 17.1229C20.1847 17.0989 20.1202 17.0842 20.0524 17.0842H18.8263C18.1923 17.0842 17.5717 16.8271 17.1239 16.3787L13.6097 12.8653C12.9728 12.2277 11.8619 12.228 11.2245 12.8649L7.69763 16.3917C7.24963 16.8399 6.62903 17.097 5.99524 17.097H4.48718C4.42297 17.097 4.36267 17.1122 4.30603 17.1336L1.59827 14.4259ZM11.9554 10.2229L8.42883 6.69563C7.77893 6.04605 6.91418 5.68802 5.99524 5.68802H5.30286L9.75305 1.23773C11.1429 -0.152161 13.3966 -0.152161 14.7863 1.23773L19.2496 5.70087H18.8263C17.9071 5.70087 17.0426 6.05875 16.3927 6.7085L12.8788 10.2226C12.7516 10.3503 12.5846 10.4139 12.4174 10.4139C12.2499 10.4139 12.0826 10.3501 11.9554 10.2229Z" fill="black"/>
</svg>
