<svg width="20" height="20" viewBox="0 0 20 20" fill="none" xmlns="http://www.w3.org/2000/svg">
<path d="M9.01353 0.651367C9.34955 0.699463 9.68804 0.734594 10.0212 0.797882C11.6401 1.10537 13.0258 1.85715 14.1792 3.02887C15.2284 4.09478 15.9221 5.36123 16.2199 6.82992C16.5942 8.6761 16.3359 10.4367 15.4107 12.0801C15.1144 12.6066 14.7396 13.089 14.4007 13.5915C14.3688 13.6035 14.3368 13.6156 14.3048 13.6276C14.365 13.6586 14.4373 13.6772 14.4835 13.7224C16.016 15.2265 17.5473 16.7319 19.0741 18.2418C19.1832 18.3496 19.2577 18.4923 19.3484 18.6187V18.8744C19.2688 19.1112 19.1058 19.2648 18.8736 19.3491H18.618C18.4709 19.2455 18.3062 19.1598 18.1792 19.0356C16.6482 17.537 15.1227 16.0326 13.5956 14.53C13.5571 14.4921 13.5166 14.4562 13.4697 14.4125C13.4169 14.4486 13.3661 14.4799 13.3189 14.5159C12.3039 15.2896 11.1659 15.7942 9.9111 16.008C8.03585 16.3275 6.25127 16.0475 4.59341 15.093C2.86858 14.1001 1.67207 12.6628 1.03186 10.7732C0.841995 10.2127 0.726375 9.63509 0.682224 9.04388C0.678754 8.99696 0.661517 8.95105 0.650635 8.90467V7.88214C0.66181 7.82955 0.675796 7.7774 0.683685 7.72434C0.729187 7.41806 0.756832 7.10804 0.820631 6.80567C1.12597 5.35864 1.80329 4.10622 2.83593 3.05019C3.99531 1.86464 5.38916 1.10523 7.02175 0.79664C7.34246 0.735982 7.66777 0.699171 7.991 0.651367H9.01353ZM1.8581 8.35371C1.87249 8.62479 1.87172 8.8511 1.89834 9.07416C2.06692 10.4865 2.60433 11.7387 3.58567 12.775C5.3028 14.5881 7.42419 15.2695 9.85519 14.7967C11.9864 14.3821 13.5791 13.1556 14.5232 11.1834C15.4748 9.19547 15.4169 7.18616 14.3514 5.26526C13.2592 3.2963 11.5362 2.17407 9.30167 1.89926C7.53725 1.68223 5.91456 2.11158 4.49255 3.18919C2.77254 4.49266 1.91701 6.2485 1.8581 8.35371Z" fill="#005CFF"/>
</svg>
