<svg width="36" height="37" viewBox="0 0 36 37" fill="none" xmlns="http://www.w3.org/2000/svg">
<path d="M0.173828 0.490723V36.2688H35.9519V0.490723H0.173828ZM28.2924 14.2608C28.6025 21.1436 23.4698 28.818 14.3837 28.818C11.6198 28.818 9.04828 28.0085 6.88221 26.6191C9.4791 26.9247 12.07 26.2047 14.1273 24.5932C11.9851 24.553 10.1783 23.1382 9.55662 21.1943C10.3244 21.3404 11.0787 21.2972 11.7659 21.1108C9.41202 20.6382 7.78859 18.5184 7.84077 16.251C8.49968 16.6177 9.25549 16.8383 10.056 16.8637C7.87804 15.4072 7.26086 12.53 8.54142 10.3297C10.9549 13.2903 14.5611 15.2387 18.6279 15.443C17.9138 12.3825 20.2364 9.43524 23.3953 9.43524C24.8025 9.43524 26.0742 10.0286 26.9671 10.9811C28.0822 10.762 29.1302 10.355 30.0753 9.79451C29.7101 10.9379 28.9334 11.8965 27.9242 12.5017C28.914 12.3825 29.8577 12.1201 30.7342 11.731C30.0783 12.7089 29.248 13.5706 28.2924 14.2608Z" fill="black"/>
</svg>
