<svg xmlns="http://www.w3.org/2000/svg" width="14.869" height="15.346" viewBox="0 0 14.869 15.346">
  <path id="user" d="M14.323,13.617A3.555,3.555,0,0,1,10.59,9.883,3.555,3.555,0,0,1,14.323,6.15a3.7,3.7,0,0,1,2.7,1.031,3.613,3.613,0,0,1,1.053,2.7,3.572,3.572,0,0,1-3.755,3.733ZM8.875,21.5A1.964,1.964,0,0,1,6.9,19.521v-.543a2.8,2.8,0,0,1,.5-1.661A3.237,3.237,0,0,1,8.68,16.243a14.624,14.624,0,0,1,2.854-1.02A12,12,0,0,1,14.3,14.9a11.331,11.331,0,0,1,2.8.347,18.121,18.121,0,0,1,2.843,1,3,3,0,0,1,1.324,1.064,2.85,2.85,0,0,1,.5,1.671v.543a1.888,1.888,0,0,1-.586,1.4,1.942,1.942,0,0,1-1.411.575Zm0-1.975h10.9v-.456a1.209,1.209,0,0,0-.206-.651,1.113,1.113,0,0,0-.532-.456,10.142,10.142,0,0,0-2.388-.847,11.954,11.954,0,0,0-2.344-.217,11.5,11.5,0,0,0-2.323.228,10.244,10.244,0,0,0-2.366.836,1.129,1.129,0,0,0-.532.445,1.189,1.189,0,0,0-.206.662Zm5.448-7.879a1.742,1.742,0,0,0,1.758-1.758,1.724,1.724,0,0,0-.51-1.27,1.782,1.782,0,0,0-2.5,0,1.724,1.724,0,0,0-.51,1.27,1.742,1.742,0,0,0,1.758,1.758Zm0-1.758Zm0,9.637Z" transform="translate(-6.9 -6.15)" fill="#005cff"/>
</svg>
