<svg width="26" height="25" viewBox="0 0 26 25" fill="none" xmlns="http://www.w3.org/2000/svg">
<path d="M13.5618 0C14.1066 0.146428 14.6716 0.241942 15.1928 0.448115C17.5182 1.36793 18.9726 3.83318 18.6953 6.32441C18.4128 8.8627 16.4961 10.9198 14.0141 11.3485C10.7364 11.9146 7.7352 9.68868 7.3148 6.37996C6.92856 3.33946 9.20183 0.414582 12.2305 0.0532618C12.3027 0.044655 12.3729 0.0181638 12.444 0H13.5618ZM12.9987 1.14253C10.5285 1.1228 8.44638 3.17212 8.42335 5.64575C8.39966 8.1907 10.422 10.2736 12.9354 10.2928C15.4878 10.3123 17.5571 8.30208 17.581 5.77978C17.6053 3.22075 15.572 1.1631 12.9987 1.14253Z" fill="#005CFF"/>
<path d="M12.9652 24.0341C9.23141 24.0341 5.49755 24.0342 1.76375 24.034C1.15836 24.0339 0.981587 23.8547 0.987958 23.2505C1.04262 18.0763 4.86786 13.6095 10 12.7536C10.6577 12.6439 11.3328 12.5957 11.9999 12.5948C13.19 12.5931 14.391 12.5586 15.5683 12.6988C18.6367 13.0643 21.0897 14.5561 22.9284 17.0291C24.2957 18.8682 24.9709 20.9573 25.0173 23.2482C25.0286 23.8032 24.8004 24.0338 24.2505 24.0338C20.4887 24.0342 16.727 24.0341 12.9652 24.0341ZM23.8546 22.8707C23.8546 22.7954 23.8581 22.7319 23.854 22.669C23.7921 21.7239 23.6012 20.8037 23.2353 19.9316C21.7448 16.3785 19.0945 14.2994 15.2656 13.8128C14.2374 13.6822 13.183 13.745 12.1406 13.7435C11.5831 13.7427 11.0159 13.7379 10.4695 13.8309C6.55619 14.4971 3.91753 16.7047 2.58514 20.4486C2.31034 21.2209 2.16743 22.0262 2.14334 22.8707H23.8546Z" fill="#005CFF"/>
</svg>
