<svg width="34" height="11" viewBox="0 0 34 11" fill="none" xmlns="http://www.w3.org/2000/svg">
<path d="M24.3456 0.61501C23.8066 0.414057 22.9609 0.195312 21.9143 0.195312C19.2381 0.195312 17.3468 1.54756 17.3353 3.48278C17.3133 4.90515 18.676 5.70687 19.7059 6.18623C20.764 6.6771 21.1178 6.98271 21.1126 7.41811C21.1073 8.089 20.2669 8.38834 19.4934 8.38834C18.4185 8.38834 17.8356 8.24181 16.9365 7.86502L16.6026 7.70698L16.2217 9.94259C16.8758 10.2095 18.048 10.4439 19.2579 10.4659C22.109 10.4659 23.9678 9.12517 23.9887 7.05807C24.0107 5.92457 23.2812 5.06424 21.7269 4.35462C20.7892 3.89724 20.202 3.58535 20.202 3.11646C20.202 2.70199 20.7033 2.26659 21.75 2.26659C22.649 2.24985 23.2822 2.44661 23.7773 2.64233L24.0337 2.75642L24.4095 0.603498L24.3456 0.61501ZM31.3026 0.380566H29.2093C28.5552 0.380566 28.0695 0.555353 27.7807 1.20426L23.7574 10.3236H26.6032L27.1767 8.83002L30.6484 8.83525C30.7353 9.18378 30.9802 10.3225 30.9802 10.3225H33.4932L31.3026 0.380566ZM13.4816 0.298928H16.1913L14.4958 10.2461H11.786L13.4816 0.293694V0.298928ZM6.59161 5.77699L6.86897 7.16169L9.52322 0.380566H12.3962L8.12179 10.3068H5.26134L2.91689 1.90132C2.8677 1.75479 2.80804 1.65536 2.66047 1.56954C1.87026 1.15507 0.981669 0.817012 0.000976562 0.582566L0.0334221 0.374286H4.4052C4.99445 0.396265 5.47381 0.582566 5.63708 1.21473L6.59161 5.78223L6.59161 5.77699ZM27.9492 6.79641L29.0345 4.01133C29.0178 4.03749 29.2574 3.43882 29.3935 3.06203L29.5788 3.91713L30.2067 6.79014H27.9492V6.79641Z" fill="black"/>
</svg>
